<svg width="93" height="164" viewBox="0 0 93 164" fill="none" xmlns="http://www.w3.org/2000/svg">
<g opacity="0.5" filter="url(#filter0_d)">
<path d="M62.022 155C60.5554 155 59.3087 154.487 58.282 153.46C57.2554 152.433 56.742 151.187 56.742 149.72V35.76L23.302 61.5C22.422 62.2333 21.3954 62.6 20.222 62.6C18.462 62.6 16.9954 61.7933 15.822 60.18L6.58203 48.3C5.8487 47.1267 5.48203 46.0267 5.48203 45C5.48203 43.24 6.2887 41.7733 7.90203 40.6L57.182 2.54C58.502 1.51332 60.3354 0.99999 62.682 0.99999H82.042C83.6554 0.99999 84.902 1.51332 85.782 2.54C86.8087 3.41999 87.322 4.66666 87.322 6.27999V149.72C87.322 151.187 86.8087 152.433 85.782 153.46C84.902 154.487 83.6554 155 82.042 155H62.022Z" fill="url(#paint0_radial)"/>
<path d="M56.742 35.76H57.742V33.7283L56.1321 34.9676L56.742 35.76ZM23.302 61.5L22.6921 60.7076L22.6767 60.7194L22.6618 60.7318L23.302 61.5ZM15.822 60.18L16.6308 59.5918L16.6213 59.5788L16.6114 59.5661L15.822 60.18ZM6.58203 48.3L5.73403 48.83L5.7612 48.8735L5.79268 48.9139L6.58203 48.3ZM7.90203 40.6L8.4902 41.4087L8.50187 41.4002L8.51328 41.3914L7.90203 40.6ZM57.182 2.54L57.7933 3.33144L57.796 3.32935L57.182 2.54ZM85.782 2.54L85.0228 3.19079L85.0728 3.24919L85.1312 3.29925L85.782 2.54ZM85.782 153.46L85.0749 152.753L85.0478 152.78L85.0228 152.809L85.782 153.46ZM62.022 154C60.8176 154 59.8261 153.59 58.9891 152.753L57.5749 154.167C58.7913 155.383 60.2932 156 62.022 156V154ZM58.9891 152.753C58.1521 151.916 57.742 150.924 57.742 149.72H55.742C55.742 151.449 56.3586 152.951 57.5749 154.167L58.9891 152.753ZM57.742 149.72V35.76H55.742V149.72H57.742ZM56.1321 34.9676L22.6921 60.7076L23.912 62.2924L57.352 36.5524L56.1321 34.9676ZM22.6618 60.7318C21.9663 61.3114 21.1676 61.6 20.222 61.6V63.6C21.6231 63.6 22.8778 63.1552 23.9422 62.2682L22.6618 60.7318ZM20.222 61.6C18.8281 61.6 17.6448 60.9861 16.6308 59.5918L15.0133 60.7682C16.3459 62.6005 18.0959 63.6 20.222 63.6V61.6ZM16.6114 59.5661L7.37138 47.6861L5.79268 48.9139L15.0327 60.7939L16.6114 59.5661ZM7.43003 47.77C6.76252 46.702 6.48203 45.7847 6.48203 45H4.48203C4.48203 46.2686 4.93488 47.5513 5.73403 48.83L7.43003 47.77ZM6.48203 45C6.48203 43.6061 7.09588 42.4228 8.4902 41.4087L7.31386 39.7913C5.48151 41.1239 4.48203 42.8739 4.48203 45H6.48203ZM8.51328 41.3914L57.7933 3.33144L56.5708 1.74856L7.29079 39.8086L8.51328 41.3914ZM57.796 3.32935C58.8818 2.48478 60.4699 1.99999 62.682 1.99999V-1.04904e-05C60.2008 -1.04904e-05 58.1222 0.541872 56.5681 1.75065L57.796 3.32935ZM62.682 1.99999H82.042V-1.04904e-05H62.682V1.99999ZM82.042 1.99999C83.4254 1.99999 84.3697 2.42887 85.0228 3.19079L86.5413 1.88921C85.4344 0.597782 83.8853 -1.04904e-05 82.042 -1.04904e-05V1.99999ZM85.1312 3.29925C85.8932 3.95232 86.322 4.89658 86.322 6.27999H88.322C88.322 4.43673 87.7242 2.88767 86.4328 1.78074L85.1312 3.29925ZM86.322 6.27999V149.72H88.322V6.27999H86.322ZM86.322 149.72C86.322 150.924 85.9119 151.916 85.0749 152.753L86.4891 154.167C87.7055 152.951 88.322 151.449 88.322 149.72H86.322ZM85.0228 152.809C84.3697 153.571 83.4254 154 82.042 154V156C83.8853 156 85.4344 155.402 86.5413 154.111L85.0228 152.809ZM82.042 154H62.022V156H82.042V154Z" fill="black"/>
</g>
<defs>
<filter id="filter0_d" x="0.482422" y="0" width="91.84" height="164" filterUnits="userSpaceOnUse" color-interpolation-filters="sRGB">
<feFlood flood-opacity="0" result="BackgroundImageFix"/>
<feColorMatrix in="SourceAlpha" type="matrix" values="0 0 0 0 0 0 0 0 0 0 0 0 0 0 0 0 0 0 127 0" result="hardAlpha"/>
<feOffset dy="4"/>
<feGaussianBlur stdDeviation="2"/>
<feComposite in2="hardAlpha" operator="out"/>
<feColorMatrix type="matrix" values="0 0 0 0 0 0 0 0 0 0 0 0 0 0 0 0 0 0 0.25 0"/>
<feBlend mode="normal" in2="BackgroundImageFix" result="effect1_dropShadow"/>
<feBlend mode="normal" in="SourceGraphic" in2="effect1_dropShadow" result="shape"/>
</filter>
<radialGradient id="paint0_radial" cx="0" cy="0" r="1" gradientUnits="userSpaceOnUse" gradientTransform="translate(1 -51) rotate(67.4865) scale(166.492 66.9987)">
<stop offset="0.302083" stop-color="#05E177"/>
<stop offset="1" stop-color="#7BDFFF"/>
</radialGradient>
</defs>
</svg>
