<svg width="1440" height="434" viewBox="0 0 1440 434" fill="none" xmlns="http://www.w3.org/2000/svg">
<path d="M1552 115.188C1275 75.188 1162.42 128.032 1065.07 171.555C955.315 220.62 890 259.5 776.5 308C691.588 344.284 523 355 381 308C279.946 274.552 207.5 217 -12 187.5" stroke="url(#paint0_linear)" stroke-width="4"/>
<g filter="url(#filter0_d)">
<g filter="url(#filter1_i)">
<rect x="100" y="170" width="90" height="90" rx="24" fill="white"/>
</g>
<path d="M145.698 189.171C145.25 188.992 144.75 188.992 144.302 189.171L121.922 198.122L145 207.351L168.077 198.122L145.698 189.171ZM171.25 200.894L146.875 210.644V240.351L171.25 230.601V200.897V200.894ZM143.125 240.355V210.64L118.75 200.894V230.605L143.125 240.355ZM142.911 185.687C144.252 185.151 145.748 185.151 147.089 185.687L173.822 196.382C174.17 196.522 174.468 196.762 174.678 197.072C174.888 197.382 175 197.748 175 198.122V230.605C175 231.354 174.775 232.086 174.354 232.706C173.934 233.327 173.337 233.807 172.641 234.085L145.698 244.862C145.25 245.042 144.75 245.042 144.302 244.862L117.362 234.085C116.666 233.807 116.069 233.328 115.647 232.707C115.226 232.087 115.001 231.355 115 230.605V198.122C115 197.748 115.112 197.382 115.322 197.072C115.532 196.762 115.83 196.522 116.178 196.382L142.911 185.687Z" fill="#05E177"/>
</g>
<g filter="url(#filter2_d)">
<g filter="url(#filter3_i)">
<rect x="541" y="282" width="90" height="90" rx="24" fill="white"/>
</g>
<path d="M559.752 310.121C559.752 308.629 560.344 307.199 561.399 306.144C562.454 305.089 563.885 304.496 565.377 304.496H575.742C579.334 304.496 582.342 306.596 584.408 308.936C585.946 310.676 587.802 311.996 589.752 311.996H606.627C608.119 311.996 609.549 312.589 610.604 313.644C611.659 314.699 612.252 316.129 612.252 317.621V320.021C614.389 321.015 615.777 323.306 615.462 325.819L613.062 345.034C612.778 347.303 611.675 349.39 609.96 350.902C608.246 352.415 606.037 353.248 603.751 353.246H568.249C565.964 353.246 563.757 352.412 562.044 350.9C560.331 349.387 559.229 347.301 558.946 345.034L556.546 325.819C556.398 324.637 556.628 323.44 557.205 322.398C557.781 321.356 558.673 320.524 559.752 320.021V310.121ZM563.502 319.496H608.502V317.621C608.502 317.124 608.304 316.647 607.953 316.295C607.601 315.944 607.124 315.746 606.627 315.746H589.752C586.137 315.746 583.339 313.387 581.599 311.419C579.904 309.499 577.827 308.246 575.742 308.246H565.377C564.879 308.246 564.403 308.444 564.051 308.795C563.699 309.147 563.502 309.624 563.502 310.121V319.496ZM562.126 323.246C561.86 323.246 561.597 323.303 561.355 323.412C561.112 323.521 560.896 323.681 560.72 323.88C560.544 324.08 560.413 324.314 560.334 324.568C560.256 324.822 560.233 325.09 560.266 325.354L562.666 344.569C562.836 345.929 563.497 347.181 564.525 348.089C565.553 348.996 566.878 349.497 568.249 349.496H603.754C605.126 349.497 606.45 348.996 607.478 348.089C608.507 347.181 609.168 345.929 609.338 344.569L611.738 325.354C611.771 325.09 611.747 324.822 611.669 324.568C611.591 324.314 611.459 324.08 611.283 323.88C611.107 323.681 610.891 323.521 610.649 323.412C610.407 323.303 610.144 323.246 609.878 323.246H562.126Z" fill="#00C2FF"/>
</g>
<g filter="url(#filter4_d)">
<g filter="url(#filter5_i)">
<rect x="1000" y="121.996" width="90" height="90" rx="24" fill="white"/>
</g>
<path d="M1015 166.992C1015 159.036 1018.16 151.405 1023.79 145.779C1029.41 140.153 1037.04 136.992 1045 136.992C1052.96 136.992 1060.59 140.153 1066.21 145.779C1071.84 151.405 1075 159.036 1075 166.992C1075 174.949 1071.84 182.579 1066.21 188.205C1060.59 193.831 1052.96 196.992 1045 196.992C1037.04 196.992 1029.41 193.831 1023.79 188.205C1018.16 182.579 1015 174.949 1015 166.992ZM1043.12 141.031C1040.61 141.796 1038.12 144.106 1036.05 147.987C1035.51 148.992 1035.01 150.087 1034.57 151.257C1037.21 151.846 1040.09 152.221 1043.12 152.333V141.031ZM1030.93 150.263C1031.47 148.823 1032.07 147.473 1032.74 146.221C1033.39 144.995 1034.13 143.825 1034.98 142.722C1031.78 144.045 1028.88 145.985 1026.44 148.43C1027.8 149.12 1029.3 149.738 1030.93 150.267V150.263ZM1028.16 165.117C1028.29 161.105 1028.86 157.291 1029.79 153.837C1027.76 153.188 1025.8 152.351 1023.93 151.336C1020.94 155.346 1019.17 160.129 1018.82 165.117H1028.15H1028.16ZM1033.41 154.838C1032.52 158.198 1032.02 161.646 1031.91 165.117H1043.12V156.083C1039.71 155.971 1036.44 155.54 1033.41 154.838ZM1046.88 156.08V165.117H1058.09C1057.98 161.646 1057.47 158.198 1056.59 154.838C1053.56 155.54 1050.29 155.967 1046.88 156.083V156.08ZM1031.91 168.867C1032.04 172.568 1032.57 176.045 1033.41 179.146C1036.6 178.422 1039.85 178.006 1043.12 177.905V168.867H1031.91ZM1046.88 168.867V177.901C1050.29 178.013 1053.56 178.445 1056.59 179.146C1057.43 176.045 1057.96 172.568 1058.09 168.867H1046.88ZM1034.57 182.727C1035.02 183.897 1035.51 184.992 1036.05 185.997C1038.12 189.878 1040.62 192.185 1043.12 192.953V181.655C1040.09 181.767 1037.21 182.142 1034.57 182.731V182.727ZM1034.98 191.262C1034.14 190.16 1033.39 188.99 1032.74 187.763C1032.05 186.456 1031.44 185.105 1030.93 183.717C1029.39 184.213 1027.89 184.827 1026.44 185.555C1028.88 188 1031.78 189.939 1034.98 191.262H1034.98ZM1029.79 180.147C1028.82 176.462 1028.27 172.677 1028.15 168.867H1018.82C1019.17 173.855 1020.94 178.638 1023.93 182.648C1025.69 181.681 1027.66 180.841 1029.79 180.147ZM1055.02 191.262C1058.21 189.94 1061.11 188.002 1063.56 185.558C1062.11 184.831 1060.61 184.217 1059.07 183.721C1058.56 185.107 1057.95 186.458 1057.26 187.763C1056.61 188.99 1055.87 190.16 1055.02 191.262ZM1046.88 181.651V192.953C1049.39 192.188 1051.88 189.878 1053.95 185.997C1054.49 184.992 1054.99 183.897 1055.43 182.727C1052.62 182.11 1049.75 181.751 1046.88 181.655V181.651ZM1060.21 180.147C1062.34 180.841 1064.31 181.681 1066.08 182.648C1069.06 178.638 1070.83 173.855 1071.18 168.867H1061.84C1061.73 172.677 1061.18 176.462 1060.21 180.147ZM1071.18 165.117C1070.83 160.129 1069.06 155.346 1066.08 151.336C1064.31 152.303 1062.34 153.143 1060.21 153.837C1061.14 157.287 1061.71 161.105 1061.84 165.117H1071.18ZM1057.26 146.221C1057.93 147.473 1058.53 148.823 1059.07 150.263C1060.61 149.767 1062.11 149.153 1063.56 148.426C1061.11 145.984 1058.21 144.047 1055.02 142.726C1055.84 143.787 1056.59 144.965 1057.26 146.221ZM1055.43 151.257C1055.01 150.138 1054.51 149.046 1053.95 147.987C1051.88 144.106 1049.39 141.8 1046.88 141.031V152.33C1049.91 152.217 1052.79 151.842 1055.43 151.253V151.257Z" fill="#05E177"/>
</g>
<g opacity="0.5" filter="url(#filter6_d)">
<path d="M387.022 368C385.555 368 384.309 367.487 383.282 366.46C382.255 365.433 381.742 364.187 381.742 362.72V248.76L348.302 274.5C347.422 275.233 346.395 275.6 345.222 275.6C343.462 275.6 341.995 274.793 340.822 273.18L331.582 261.3C330.849 260.127 330.482 259.027 330.482 258C330.482 256.24 331.289 254.773 332.902 253.6L382.182 215.54C383.502 214.513 385.335 214 387.682 214H407.042C408.655 214 409.902 214.513 410.782 215.54C411.809 216.42 412.322 217.667 412.322 219.28V362.72C412.322 364.187 411.809 365.433 410.782 366.46C409.902 367.487 408.655 368 407.042 368H387.022Z" fill="url(#paint1_radial)"/>
<path d="M381.742 248.76H382.742V246.728L381.132 247.968L381.742 248.76ZM348.302 274.5L347.692 273.708L347.677 273.719L347.662 273.732L348.302 274.5ZM340.822 273.18L341.631 272.592L341.621 272.579L341.611 272.566L340.822 273.18ZM331.582 261.3L330.734 261.83L330.761 261.873L330.793 261.914L331.582 261.3ZM332.902 253.6L333.49 254.409L333.502 254.4L333.513 254.391L332.902 253.6ZM382.182 215.54L382.793 216.331L382.796 216.329L382.182 215.54ZM410.782 215.54L410.023 216.191L410.073 216.249L410.131 216.299L410.782 215.54ZM410.782 366.46L410.075 365.753L410.048 365.78L410.023 365.809L410.782 366.46ZM387.022 367C385.818 367 384.826 366.59 383.989 365.753L382.575 367.167C383.791 368.383 385.293 369 387.022 369V367ZM383.989 365.753C383.152 364.916 382.742 363.924 382.742 362.72H380.742C380.742 364.449 381.359 365.951 382.575 367.167L383.989 365.753ZM382.742 362.72V248.76H380.742V362.72H382.742ZM381.132 247.968L347.692 273.708L348.912 275.292L382.352 249.552L381.132 247.968ZM347.662 273.732C346.966 274.311 346.168 274.6 345.222 274.6V276.6C346.623 276.6 347.878 276.155 348.942 275.268L347.662 273.732ZM345.222 274.6C343.828 274.6 342.645 273.986 341.631 272.592L340.013 273.768C341.346 275.601 343.096 276.6 345.222 276.6V274.6ZM341.611 272.566L332.371 260.686L330.793 261.914L340.033 273.794L341.611 272.566ZM332.43 260.77C331.763 259.702 331.482 258.785 331.482 258H329.482C329.482 259.269 329.935 260.551 330.734 261.83L332.43 260.77ZM331.482 258C331.482 256.606 332.096 255.423 333.49 254.409L332.314 252.791C330.482 254.124 329.482 255.874 329.482 258H331.482ZM333.513 254.391L382.793 216.331L381.571 214.749L332.291 252.809L333.513 254.391ZM382.796 216.329C383.882 215.485 385.47 215 387.682 215V213C385.201 213 383.122 213.542 381.568 214.751L382.796 216.329ZM387.682 215H407.042V213H387.682V215ZM407.042 215C408.425 215 409.37 215.429 410.023 216.191L411.541 214.889C410.434 213.598 408.885 213 407.042 213V215ZM410.131 216.299C410.893 216.952 411.322 217.897 411.322 219.28H413.322C413.322 217.437 412.724 215.888 411.433 214.781L410.131 216.299ZM411.322 219.28V362.72H413.322V219.28H411.322ZM411.322 362.72C411.322 363.924 410.912 364.916 410.075 365.753L411.489 367.167C412.705 365.951 413.322 364.449 413.322 362.72H411.322ZM410.023 365.809C409.37 366.571 408.425 367 407.042 367V369C408.885 369 410.434 368.402 411.541 367.111L410.023 365.809ZM407.042 367H387.022V369H407.042V367Z" fill="black"/>
</g>
<g opacity="0.5">
<path d="M772.575 379C771.108 379 769.861 378.487 768.835 377.46C767.808 376.433 767.295 375.187 767.295 373.72V362.5C767.295 358.54 769.128 355.093 772.795 352.16L807.555 317.62C822.661 305.74 833.148 296.5 839.015 289.9C845.028 283.153 848.035 276.553 848.035 270.1C848.035 263.207 846.128 257.78 842.315 253.82C838.648 249.86 833.075 247.88 825.595 247.88C818.261 247.88 812.468 250.08 808.215 254.48C803.961 258.733 801.321 264.307 800.295 271.2C799.855 272.96 799.048 274.28 797.875 275.16C796.701 275.893 795.381 276.26 793.915 276.26H774.335C773.015 276.26 771.915 275.82 771.035 274.94C770.155 274.06 769.715 273.033 769.715 271.86C770.008 263.207 772.355 255.14 776.755 247.66C781.155 240.033 787.535 233.947 795.895 229.4C804.255 224.707 814.081 222.36 825.375 222.36C837.108 222.36 847.008 224.413 855.075 228.52C863.288 232.48 869.448 237.98 873.555 245.02C877.661 252.06 879.715 260.053 879.715 269C879.715 278.827 876.928 287.7 871.355 295.62C865.928 303.54 857.568 312.047 846.275 321.14L815.035 352.82H877.735C879.348 352.82 880.595 353.333 881.475 354.36C882.501 355.24 883.015 356.487 883.015 358.1V373.72C883.015 375.187 882.501 376.433 881.475 377.46C880.595 378.487 879.348 379 877.735 379H772.575Z" fill="black"/>
<path d="M772.575 379C771.108 379 769.861 378.487 768.835 377.46C767.808 376.433 767.295 375.187 767.295 373.72V362.5C767.295 358.54 769.128 355.093 772.795 352.16L807.555 317.62C822.661 305.74 833.148 296.5 839.015 289.9C845.028 283.153 848.035 276.553 848.035 270.1C848.035 263.207 846.128 257.78 842.315 253.82C838.648 249.86 833.075 247.88 825.595 247.88C818.261 247.88 812.468 250.08 808.215 254.48C803.961 258.733 801.321 264.307 800.295 271.2C799.855 272.96 799.048 274.28 797.875 275.16C796.701 275.893 795.381 276.26 793.915 276.26H774.335C773.015 276.26 771.915 275.82 771.035 274.94C770.155 274.06 769.715 273.033 769.715 271.86C770.008 263.207 772.355 255.14 776.755 247.66C781.155 240.033 787.535 233.947 795.895 229.4C804.255 224.707 814.081 222.36 825.375 222.36C837.108 222.36 847.008 224.413 855.075 228.52C863.288 232.48 869.448 237.98 873.555 245.02C877.661 252.06 879.715 260.053 879.715 269C879.715 278.827 876.928 287.7 871.355 295.62C865.928 303.54 857.568 312.047 846.275 321.14L815.035 352.82H877.735C879.348 352.82 880.595 353.333 881.475 354.36C882.501 355.24 883.015 356.487 883.015 358.1V373.72C883.015 375.187 882.501 376.433 881.475 377.46C880.595 378.487 879.348 379 877.735 379H772.575Z" fill="url(#paint2_radial)"/>
</g>
<g opacity="0.5">
<path d="M1289.63 208.2C1276.73 208.2 1265.73 206.147 1256.63 202.04C1247.69 197.933 1240.94 192.8 1236.39 186.64C1231.99 180.333 1229.65 173.88 1229.35 167.28C1229.35 165.96 1229.79 164.933 1230.67 164.2C1231.7 163.32 1232.87 162.88 1234.19 162.88H1253.99C1257.22 162.88 1259.35 164.347 1260.37 167.28C1263.6 177.84 1273.43 183.12 1289.85 183.12C1298.8 183.12 1305.84 181.067 1310.97 176.96C1316.11 172.707 1318.67 166.693 1318.67 158.92C1318.67 144.253 1309.51 136.92 1291.17 136.92H1268.51C1266.9 136.92 1265.58 136.407 1264.55 135.38C1263.53 134.353 1263.01 133.107 1263.01 131.64V122.4C1263.01 120.053 1264.04 117.853 1266.09 115.8L1305.47 77.3H1242.55C1241.09 77.3 1239.84 76.7867 1238.81 75.76C1237.79 74.7333 1237.27 73.4867 1237.27 72.02V57.5C1237.27 55.8867 1237.71 54.5667 1238.59 53.54C1239.62 52.5133 1240.94 52 1242.55 52H1336.93C1338.55 52 1339.87 52.5133 1340.89 53.54C1341.92 54.5667 1342.43 55.8867 1342.43 57.5V70.7C1342.43 72.9 1341.48 74.9533 1339.57 76.86L1301.51 116.02L1304.15 116.24C1318.23 117.413 1329.38 121.667 1337.59 129C1345.95 136.333 1350.13 146.82 1350.13 160.46C1350.13 170.14 1347.49 178.573 1342.21 185.76C1337.08 192.947 1329.89 198.52 1320.65 202.48C1311.56 206.293 1301.22 208.2 1289.63 208.2Z" fill="black"/>
<path d="M1289.63 208.2C1276.73 208.2 1265.73 206.147 1256.63 202.04C1247.69 197.933 1240.94 192.8 1236.39 186.64C1231.99 180.333 1229.65 173.88 1229.35 167.28C1229.35 165.96 1229.79 164.933 1230.67 164.2C1231.7 163.32 1232.87 162.88 1234.19 162.88H1253.99C1257.22 162.88 1259.35 164.347 1260.37 167.28C1263.6 177.84 1273.43 183.12 1289.85 183.12C1298.8 183.12 1305.84 181.067 1310.97 176.96C1316.11 172.707 1318.67 166.693 1318.67 158.92C1318.67 144.253 1309.51 136.92 1291.17 136.92H1268.51C1266.9 136.92 1265.58 136.407 1264.55 135.38C1263.53 134.353 1263.01 133.107 1263.01 131.64V122.4C1263.01 120.053 1264.04 117.853 1266.09 115.8L1305.47 77.3H1242.55C1241.09 77.3 1239.84 76.7867 1238.81 75.76C1237.79 74.7333 1237.27 73.4867 1237.27 72.02V57.5C1237.27 55.8867 1237.71 54.5667 1238.59 53.54C1239.62 52.5133 1240.94 52 1242.55 52H1336.93C1338.55 52 1339.87 52.5133 1340.89 53.54C1341.92 54.5667 1342.43 55.8867 1342.43 57.5V70.7C1342.43 72.9 1341.48 74.9533 1339.57 76.86L1301.51 116.02L1304.15 116.24C1318.23 117.413 1329.38 121.667 1337.59 129C1345.95 136.333 1350.13 146.82 1350.13 160.46C1350.13 170.14 1347.49 178.573 1342.21 185.76C1337.08 192.947 1329.89 198.52 1320.65 202.48C1311.56 206.293 1301.22 208.2 1289.63 208.2Z" fill="url(#paint3_radial)"/>
</g>
<defs>
<filter id="filter0_d" x="90" y="166" width="110" height="110" filterUnits="userSpaceOnUse" color-interpolation-filters="sRGB">
<feFlood flood-opacity="0" result="BackgroundImageFix"/>
<feColorMatrix in="SourceAlpha" type="matrix" values="0 0 0 0 0 0 0 0 0 0 0 0 0 0 0 0 0 0 127 0" result="hardAlpha"/>
<feOffset dy="6"/>
<feGaussianBlur stdDeviation="5"/>
<feComposite in2="hardAlpha" operator="out"/>
<feColorMatrix type="matrix" values="0 0 0 0 0 0 0 0 0 0.388235 0 0 0 0 0.509804 0 0 0 0.25 0"/>
<feBlend mode="normal" in2="BackgroundImageFix" result="effect1_dropShadow"/>
<feBlend mode="normal" in="SourceGraphic" in2="effect1_dropShadow" result="shape"/>
</filter>
<filter id="filter1_i" x="100" y="170" width="90" height="90" filterUnits="userSpaceOnUse" color-interpolation-filters="sRGB">
<feFlood flood-opacity="0" result="BackgroundImageFix"/>
<feBlend mode="normal" in="SourceGraphic" in2="BackgroundImageFix" result="shape"/>
<feColorMatrix in="SourceAlpha" type="matrix" values="0 0 0 0 0 0 0 0 0 0 0 0 0 0 0 0 0 0 127 0" result="hardAlpha"/>
<feOffset/>
<feGaussianBlur stdDeviation="5"/>
<feComposite in2="hardAlpha" operator="arithmetic" k2="-1" k3="1"/>
<feColorMatrix type="matrix" values="0 0 0 0 0.383333 0 0 0 0 0.519 0 0 0 0 1 0 0 0 0.25 0"/>
<feBlend mode="normal" in2="shape" result="effect1_innerShadow"/>
</filter>
<filter id="filter2_d" x="531" y="278" width="110" height="110" filterUnits="userSpaceOnUse" color-interpolation-filters="sRGB">
<feFlood flood-opacity="0" result="BackgroundImageFix"/>
<feColorMatrix in="SourceAlpha" type="matrix" values="0 0 0 0 0 0 0 0 0 0 0 0 0 0 0 0 0 0 127 0" result="hardAlpha"/>
<feOffset dy="6"/>
<feGaussianBlur stdDeviation="5"/>
<feComposite in2="hardAlpha" operator="out"/>
<feColorMatrix type="matrix" values="0 0 0 0 0 0 0 0 0 0.388235 0 0 0 0 0.509804 0 0 0 0.25 0"/>
<feBlend mode="normal" in2="BackgroundImageFix" result="effect1_dropShadow"/>
<feBlend mode="normal" in="SourceGraphic" in2="effect1_dropShadow" result="shape"/>
</filter>
<filter id="filter3_i" x="541" y="282" width="90" height="90" filterUnits="userSpaceOnUse" color-interpolation-filters="sRGB">
<feFlood flood-opacity="0" result="BackgroundImageFix"/>
<feBlend mode="normal" in="SourceGraphic" in2="BackgroundImageFix" result="shape"/>
<feColorMatrix in="SourceAlpha" type="matrix" values="0 0 0 0 0 0 0 0 0 0 0 0 0 0 0 0 0 0 127 0" result="hardAlpha"/>
<feOffset/>
<feGaussianBlur stdDeviation="5"/>
<feComposite in2="hardAlpha" operator="arithmetic" k2="-1" k3="1"/>
<feColorMatrix type="matrix" values="0 0 0 0 0.383333 0 0 0 0 0.519 0 0 0 0 1 0 0 0 0.25 0"/>
<feBlend mode="normal" in2="shape" result="effect1_innerShadow"/>
</filter>
<filter id="filter4_d" x="990" y="117.996" width="110" height="110" filterUnits="userSpaceOnUse" color-interpolation-filters="sRGB">
<feFlood flood-opacity="0" result="BackgroundImageFix"/>
<feColorMatrix in="SourceAlpha" type="matrix" values="0 0 0 0 0 0 0 0 0 0 0 0 0 0 0 0 0 0 127 0" result="hardAlpha"/>
<feOffset dy="6"/>
<feGaussianBlur stdDeviation="5"/>
<feComposite in2="hardAlpha" operator="out"/>
<feColorMatrix type="matrix" values="0 0 0 0 0 0 0 0 0 0.388235 0 0 0 0 0.509804 0 0 0 0.25 0"/>
<feBlend mode="normal" in2="BackgroundImageFix" result="effect1_dropShadow"/>
<feBlend mode="normal" in="SourceGraphic" in2="effect1_dropShadow" result="shape"/>
</filter>
<filter id="filter5_i" x="1000" y="121.996" width="90" height="90" filterUnits="userSpaceOnUse" color-interpolation-filters="sRGB">
<feFlood flood-opacity="0" result="BackgroundImageFix"/>
<feBlend mode="normal" in="SourceGraphic" in2="BackgroundImageFix" result="shape"/>
<feColorMatrix in="SourceAlpha" type="matrix" values="0 0 0 0 0 0 0 0 0 0 0 0 0 0 0 0 0 0 127 0" result="hardAlpha"/>
<feOffset/>
<feGaussianBlur stdDeviation="5"/>
<feComposite in2="hardAlpha" operator="arithmetic" k2="-1" k3="1"/>
<feColorMatrix type="matrix" values="0 0 0 0 0.383333 0 0 0 0 0.519 0 0 0 0 1 0 0 0 0.25 0"/>
<feBlend mode="normal" in2="shape" result="effect1_innerShadow"/>
</filter>
<filter id="filter6_d" x="325.482" y="213" width="91.84" height="164" filterUnits="userSpaceOnUse" color-interpolation-filters="sRGB">
<feFlood flood-opacity="0" result="BackgroundImageFix"/>
<feColorMatrix in="SourceAlpha" type="matrix" values="0 0 0 0 0 0 0 0 0 0 0 0 0 0 0 0 0 0 127 0" result="hardAlpha"/>
<feOffset dy="4"/>
<feGaussianBlur stdDeviation="2"/>
<feComposite in2="hardAlpha" operator="out"/>
<feColorMatrix type="matrix" values="0 0 0 0 0 0 0 0 0 0 0 0 0 0 0 0 0 0 0.25 0"/>
<feBlend mode="normal" in2="BackgroundImageFix" result="effect1_dropShadow"/>
<feBlend mode="normal" in="SourceGraphic" in2="effect1_dropShadow" result="shape"/>
</filter>
<linearGradient id="paint0_linear" x1="1440" y1="101" x2="-1.49926" y2="101.001" gradientUnits="userSpaceOnUse">
<stop offset="0.0142079" stop-color="#05E177" stop-opacity="0"/>
<stop offset="0.0758399" stop-color="#05E177"/>
<stop offset="0.477949" stop-color="#00C2FF"/>
<stop offset="0.930754" stop-color="#05E177"/>
<stop offset="0.988826" stop-color="#05E177" stop-opacity="0"/>
</linearGradient>
<radialGradient id="paint1_radial" cx="0" cy="0" r="1" gradientUnits="userSpaceOnUse" gradientTransform="translate(326 162) rotate(67.4865) scale(166.492 66.9987)">
<stop offset="0.302083" stop-color="#05E177"/>
<stop offset="1" stop-color="#7BDFFF"/>
</radialGradient>
<radialGradient id="paint2_radial" cx="0" cy="0" r="1" gradientUnits="userSpaceOnUse" gradientTransform="translate(757 173) rotate(60.8946) scale(176.032 85.1117)">
<stop offset="0.302083" stop-color="#05E177"/>
<stop offset="1" stop-color="#7BDFFF"/>
</radialGradient>
<radialGradient id="paint3_radial" cx="0" cy="0" r="1" gradientUnits="userSpaceOnUse" gradientTransform="translate(1221) rotate(60.5403) scale(176.643 86.0553)">
<stop offset="0.302083" stop-color="#05E177"/>
<stop offset="1" stop-color="#7BDFFF"/>
</radialGradient>
</defs>
</svg>
