<svg width="1440" height="434" viewBox="0 0 1440 434" fill="none" xmlns="http://www.w3.org/2000/svg">
<path d="M1552 115.188C1275 75.188 1162.42 128.032 1065.07 171.555C955.315 220.62 890 259.5 776.5 308C691.588 344.284 523 355 381 308C279.946 274.552 207.5 217 -12 187.5" stroke="url(#paint0_linear)" stroke-width="4"/>
<g opacity="0.5" filter="url(#filter0_d)">
<path d="M387.022 368C385.555 368 384.309 367.487 383.282 366.46C382.255 365.433 381.742 364.187 381.742 362.72V248.76L348.302 274.5C347.422 275.233 346.395 275.6 345.222 275.6C343.462 275.6 341.995 274.793 340.822 273.18L331.582 261.3C330.849 260.127 330.482 259.027 330.482 258C330.482 256.24 331.289 254.773 332.902 253.6L382.182 215.54C383.502 214.513 385.335 214 387.682 214H407.042C408.655 214 409.902 214.513 410.782 215.54C411.809 216.42 412.322 217.667 412.322 219.28V362.72C412.322 364.187 411.809 365.433 410.782 366.46C409.902 367.487 408.655 368 407.042 368H387.022Z" fill="url(#paint1_radial)"/>
</g>
<g opacity="0.5">
<path d="M772.575 379C771.108 379 769.861 378.487 768.835 377.46C767.808 376.433 767.295 375.187 767.295 373.72V362.5C767.295 358.54 769.128 355.093 772.795 352.16L807.555 317.62C822.661 305.74 833.148 296.5 839.015 289.9C845.028 283.153 848.035 276.553 848.035 270.1C848.035 263.207 846.128 257.78 842.315 253.82C838.648 249.86 833.075 247.88 825.595 247.88C818.261 247.88 812.468 250.08 808.215 254.48C803.961 258.733 801.321 264.307 800.295 271.2C799.855 272.96 799.048 274.28 797.875 275.16C796.701 275.893 795.381 276.26 793.915 276.26H774.335C773.015 276.26 771.915 275.82 771.035 274.94C770.155 274.06 769.715 273.033 769.715 271.86C770.008 263.207 772.355 255.14 776.755 247.66C781.155 240.033 787.535 233.947 795.895 229.4C804.255 224.707 814.081 222.36 825.375 222.36C837.108 222.36 847.008 224.413 855.075 228.52C863.288 232.48 869.448 237.98 873.555 245.02C877.661 252.06 879.715 260.053 879.715 269C879.715 278.827 876.928 287.7 871.355 295.62C865.928 303.54 857.568 312.047 846.275 321.14L815.035 352.82H877.735C879.348 352.82 880.595 353.333 881.475 354.36C882.501 355.24 883.015 356.487 883.015 358.1V373.72C883.015 375.187 882.501 376.433 881.475 377.46C880.595 378.487 879.348 379 877.735 379H772.575Z" fill="black"/>
<path d="M772.575 379C771.108 379 769.861 378.487 768.835 377.46C767.808 376.433 767.295 375.187 767.295 373.72V362.5C767.295 358.54 769.128 355.093 772.795 352.16L807.555 317.62C822.661 305.74 833.148 296.5 839.015 289.9C845.028 283.153 848.035 276.553 848.035 270.1C848.035 263.207 846.128 257.78 842.315 253.82C838.648 249.86 833.075 247.88 825.595 247.88C818.261 247.88 812.468 250.08 808.215 254.48C803.961 258.733 801.321 264.307 800.295 271.2C799.855 272.96 799.048 274.28 797.875 275.16C796.701 275.893 795.381 276.26 793.915 276.26H774.335C773.015 276.26 771.915 275.82 771.035 274.94C770.155 274.06 769.715 273.033 769.715 271.86C770.008 263.207 772.355 255.14 776.755 247.66C781.155 240.033 787.535 233.947 795.895 229.4C804.255 224.707 814.081 222.36 825.375 222.36C837.108 222.36 847.008 224.413 855.075 228.52C863.288 232.48 869.448 237.98 873.555 245.02C877.661 252.06 879.715 260.053 879.715 269C879.715 278.827 876.928 287.7 871.355 295.62C865.928 303.54 857.568 312.047 846.275 321.14L815.035 352.82H877.735C879.348 352.82 880.595 353.333 881.475 354.36C882.501 355.24 883.015 356.487 883.015 358.1V373.72C883.015 375.187 882.501 376.433 881.475 377.46C880.595 378.487 879.348 379 877.735 379H772.575Z" fill="url(#paint2_radial)"/>
</g>
<g opacity="0.5">
<path d="M1289.63 208.2C1276.73 208.2 1265.73 206.147 1256.63 202.04C1247.69 197.933 1240.94 192.8 1236.39 186.64C1231.99 180.333 1229.65 173.88 1229.35 167.28C1229.35 165.96 1229.79 164.933 1230.67 164.2C1231.7 163.32 1232.87 162.88 1234.19 162.88H1253.99C1257.22 162.88 1259.35 164.347 1260.37 167.28C1263.6 177.84 1273.43 183.12 1289.85 183.12C1298.8 183.12 1305.84 181.067 1310.97 176.96C1316.11 172.707 1318.67 166.693 1318.67 158.92C1318.67 144.253 1309.51 136.92 1291.17 136.92H1268.51C1266.9 136.92 1265.58 136.407 1264.55 135.38C1263.53 134.353 1263.01 133.107 1263.01 131.64V122.4C1263.01 120.053 1264.04 117.853 1266.09 115.8L1305.47 77.3H1242.55C1241.09 77.3 1239.84 76.7867 1238.81 75.76C1237.79 74.7333 1237.27 73.4867 1237.27 72.02V57.5C1237.27 55.8867 1237.71 54.5667 1238.59 53.54C1239.62 52.5133 1240.94 52 1242.55 52H1336.93C1338.55 52 1339.87 52.5133 1340.89 53.54C1341.92 54.5667 1342.43 55.8867 1342.43 57.5V70.7C1342.43 72.9 1341.48 74.9533 1339.57 76.86L1301.51 116.02L1304.15 116.24C1318.23 117.413 1329.38 121.667 1337.59 129C1345.95 136.333 1350.13 146.82 1350.13 160.46C1350.13 170.14 1347.49 178.573 1342.21 185.76C1337.08 192.947 1329.89 198.52 1320.65 202.48C1311.56 206.293 1301.22 208.2 1289.63 208.2Z" fill="black"/>
<path d="M1289.63 208.2C1276.73 208.2 1265.73 206.147 1256.63 202.04C1247.69 197.933 1240.94 192.8 1236.39 186.64C1231.99 180.333 1229.65 173.88 1229.35 167.28C1229.35 165.96 1229.79 164.933 1230.67 164.2C1231.7 163.32 1232.87 162.88 1234.19 162.88H1253.99C1257.22 162.88 1259.35 164.347 1260.37 167.28C1263.6 177.84 1273.43 183.12 1289.85 183.12C1298.8 183.12 1305.84 181.067 1310.97 176.96C1316.11 172.707 1318.67 166.693 1318.67 158.92C1318.67 144.253 1309.51 136.92 1291.17 136.92H1268.51C1266.9 136.92 1265.58 136.407 1264.55 135.38C1263.53 134.353 1263.01 133.107 1263.01 131.64V122.4C1263.01 120.053 1264.04 117.853 1266.09 115.8L1305.47 77.3H1242.55C1241.09 77.3 1239.84 76.7867 1238.81 75.76C1237.79 74.7333 1237.27 73.4867 1237.27 72.02V57.5C1237.27 55.8867 1237.71 54.5667 1238.59 53.54C1239.62 52.5133 1240.94 52 1242.55 52H1336.93C1338.55 52 1339.87 52.5133 1340.89 53.54C1341.92 54.5667 1342.43 55.8867 1342.43 57.5V70.7C1342.43 72.9 1341.48 74.9533 1339.57 76.86L1301.51 116.02L1304.15 116.24C1318.23 117.413 1329.38 121.667 1337.59 129C1345.95 136.333 1350.13 146.82 1350.13 160.46C1350.13 170.14 1347.49 178.573 1342.21 185.76C1337.08 192.947 1329.89 198.52 1320.65 202.48C1311.56 206.293 1301.22 208.2 1289.63 208.2Z" fill="url(#paint3_radial)"/>
</g>
<defs>
<filter id="filter0_d" x="326.482" y="214" width="89.84" height="162" filterUnits="userSpaceOnUse" color-interpolation-filters="sRGB">
<feFlood flood-opacity="0" result="BackgroundImageFix"/>
<feColorMatrix in="SourceAlpha" type="matrix" values="0 0 0 0 0 0 0 0 0 0 0 0 0 0 0 0 0 0 127 0" result="hardAlpha"/>
<feOffset dy="4"/>
<feGaussianBlur stdDeviation="2"/>
<feComposite in2="hardAlpha" operator="out"/>
<feColorMatrix type="matrix" values="0 0 0 0 0 0 0 0 0 0 0 0 0 0 0 0 0 0 0.25 0"/>
<feBlend mode="normal" in2="BackgroundImageFix" result="effect1_dropShadow"/>
<feBlend mode="normal" in="SourceGraphic" in2="effect1_dropShadow" result="shape"/>
</filter>
<linearGradient id="paint0_linear" x1="1440" y1="101" x2="-1.49926" y2="101.001" gradientUnits="userSpaceOnUse">
<stop offset="0.0142079" stop-color="#05E177" stop-opacity="0"/>
<stop offset="0.0758399" stop-color="#05E177"/>
<stop offset="0.477949" stop-color="#00C2FF"/>
<stop offset="0.930754" stop-color="#05E177"/>
<stop offset="0.988826" stop-color="#05E177" stop-opacity="0"/>
</linearGradient>
<radialGradient id="paint1_radial" cx="0" cy="0" r="1" gradientUnits="userSpaceOnUse" gradientTransform="translate(326 162) rotate(67.4865) scale(166.492 66.9987)">
<stop offset="0.302083" stop-color="#05E177"/>
<stop offset="1" stop-color="#7BDFFF"/>
</radialGradient>
<radialGradient id="paint2_radial" cx="0" cy="0" r="1" gradientUnits="userSpaceOnUse" gradientTransform="translate(757 173) rotate(60.8946) scale(176.032 85.1117)">
<stop offset="0.302083" stop-color="#05E177"/>
<stop offset="1" stop-color="#7BDFFF"/>
</radialGradient>
<radialGradient id="paint3_radial" cx="0" cy="0" r="1" gradientUnits="userSpaceOnUse" gradientTransform="translate(1221) rotate(60.5403) scale(176.643 86.0553)">
<stop offset="0.302083" stop-color="#05E177"/>
<stop offset="1" stop-color="#7BDFFF"/>
</radialGradient>
</defs>
</svg>
