<svg width="1440" height="1202" viewBox="0 0 1440 1202" fill="none" xmlns="http://www.w3.org/2000/svg">
<g clip-path="url(#clip0)">
<g opacity="0.9" filter="url(#filter0_i)">
<path fill-rule="evenodd" clip-rule="evenodd" d="M328.999 7.69472C913.095 126.223 1312.02 7.6947 1603 316.195C2132.96 878.072 842.319 861.148 185.497 861.15C-54.5002 861.151 -189.78 683.079 -172.502 456.149C-152.581 194.506 74.4997 -43.9498 328.999 7.69472Z" fill="#E6F3F6"/>
</g>
<g filter="url(#filter1_ii)">
<path opacity="0.9" fill-rule="evenodd" clip-rule="evenodd" d="M338.094 45.858C844.55 222.145 1498.85 26.5996 1559.55 396.146C1632.72 841.602 904.551 732.756 914.551 841.6C920.389 905.146 686.051 969.646 686.051 880.6C686.051 821.6 525.62 840.281 348.994 853.467C139.795 869.085 -77.1601 729.594 -80.2314 502.028C-83.6263 250.484 119.095 -30.3711 338.094 45.858Z" fill="#CEEAF0"/>
<path fill-rule="evenodd" clip-rule="evenodd" d="M328.496 1458.58C-65.9538 1375.02 -132.794 1117.8 -188.253 983.711C-232.728 876.176 126.446 885.33 385.998 877.144C472.965 874.402 685.498 912.144 685.498 877.144C685.498 852.656 783.181 838.11 914.5 837.647C914.5 905.905 1315.5 737.145 1441 803.645C1806.23 997.177 1699.9 1246.49 1514.22 1344.35C1352.38 1429.65 729.257 1543.47 328.496 1458.58Z" fill="#D0EBF1"/>
</g>
<g filter="url(#filter2_i)">
<path fill-rule="evenodd" clip-rule="evenodd" d="M653.417 1504.04C961.991 1507.44 1291.25 1513.37 1551.06 1473.36C1817.06 1432.39 2005.85 1362.57 2045.91 1289.58C2083.15 1221.71 1869.19 1165.22 1754.38 1102.87C1651.94 1047.24 1619.79 980.996 1411.21 944.89C1200.51 908.416 912.362 900.483 650.703 911.818C400 911.818 342.656 912.348 146.5 946.148C-50.2857 980.057 -486.65 834.922 -592 886.149C-703.964 940.592 -579.979 1226.78 -523.172 1284.94C-461.375 1348.21 -377.951 1414.08 -160.9 1454.5C62.3916 1496.08 365.016 1500.86 653.417 1504.04Z" fill="#B0D4DD"/>
</g>
<g filter="url(#filter3_i)">
<path fill-rule="evenodd" clip-rule="evenodd" d="M937.5 943.894C1476.01 949.313 2231.69 1043.95 2414.04 1142.94C2614.14 1251.56 2460.2 1372.75 2001.25 1445.6C1444.89 1533.92 681.676 1590.34 85.3629 1512.58C-571.38 1426.94 -845.93 1255.87 -548.318 1113.12C-324 1040.89 266.581 937.142 937.5 943.894Z" fill="#87BAC6"/>
</g>
<g filter="url(#filter4_i)">
<path fill-rule="evenodd" clip-rule="evenodd" d="M903.615 981.58C1267.89 981.58 1669 1070.53 1669 1135.2C1669 1200.06 1340.3 1246.58 974.89 1246.58C343.199 1246.58 -516 1247.33 -516 1135.2C-516 1023.18 722.59 981.58 903.615 981.58Z" fill="#5EA2B2"/>
</g>
<g filter="url(#filter5_i)">
<path fill-rule="evenodd" clip-rule="evenodd" d="M-476.412 1179.94C-438.559 1060.91 63.7965 1026.15 565.412 1025.66C1041.93 1025.2 1611.66 1062.6 1885.38 1177.65C2144.85 1286.71 1833.31 1372.79 1560.23 1443.8C1250.5 1524.35 909.544 1632.38 393.714 1565.55C-193.901 1489.42 -520.454 1318.43 -476.412 1179.94Z" fill="#408899"/>
</g>
<g filter="url(#filter6_i)">
<path fill-rule="evenodd" clip-rule="evenodd" d="M693.016 1455.44C94.6323 1450.19 -382.93 1323.88 -381.626 1175.21C-380.64 1062.9 244.308 1075.37 696.315 1079.33C1166.14 1083.46 1822.31 1077.8 1821.29 1194.53C1819.96 1346.58 1304.97 1460.81 693.016 1455.44Z" fill="#2C6979"/>
</g>
<g filter="url(#filter7_i)">
<path fill-rule="evenodd" clip-rule="evenodd" d="M669.757 1536.04C1138.08 1536.9 1564.9 1402.38 1565.26 1210.35C1565.52 1063.6 1028.39 1128.39 670.504 1127.73C349.555 1127.15 -127.161 1075.65 -127.401 1207.26C-127.732 1387.97 229.025 1535.23 669.757 1536.04Z" fill="#003340"/>
</g>
<path d="M0 1252C0 1196.77 44.7715 1152 100 1152H1340C1395.23 1152 1440 1196.77 1440 1252V1706H0V1252Z" fill="#003340"/>
<g opacity="0.85" filter="url(#filter8_i)">
<path fill-rule="evenodd" clip-rule="evenodd" d="M291.87 122.838C486.492 80.3111 706.592 246 749.045 440.286C783.804 599.354 654.018 770.916 494.675 805.734C214.241 867.012 22.4688 758.541 -16.4821 580.285C-62.4314 370.001 81.2225 168.867 291.87 122.838Z" fill="#AAD0D9"/>
</g>
<g opacity="0.8" filter="url(#filter9_ii)">
<path fill-rule="evenodd" clip-rule="evenodd" d="M25.0414 567.55C10.6455 400.95 100.827 197.19 267.427 182.794C448.436 167.153 678.232 305.954 693.873 486.962C703.717 704.827 514.728 789.955 344.522 804.662C189.726 818.038 38.4172 722.346 25.0414 567.55Z" fill="#7DB4C0"/>
</g>
<g opacity="0.75" filter="url(#filter10_ii)">
<path fill-rule="evenodd" clip-rule="evenodd" d="M77.6643 488.801C105.002 345.275 231.911 227.83 375.437 255.168C515.916 281.925 644.836 451.257 618.078 591.735C591.616 730.661 425.45 815.619 286.525 789.157C144.518 762.109 50.6159 630.807 77.6643 488.801Z" fill="#519AAB"/>
</g>
<g opacity="0.7" filter="url(#filter11_ii)">
<path fill-rule="evenodd" clip-rule="evenodd" d="M574.211 576.688C576.163 704.222 474.797 778.176 347.43 780.126C216.858 782.124 133.419 707.726 116.744 581.716C114.854 458.284 203.947 342.386 327.217 340.5C447.085 338.665 572.374 456.662 574.211 576.688Z" fill="#337D8E"/>
</g>
<g opacity="0.65" filter="url(#filter12_ii)">
<path fill-rule="evenodd" clip-rule="evenodd" d="M265.61 450.652C331.943 409.401 446.428 439.38 487.663 505.687C531.677 576.461 524.05 684.428 453.249 728.458C370.126 780.152 257.014 774.835 205.341 691.744C156.011 612.422 149.586 522.807 265.61 450.652Z" fill="#215967"/>
</g>
<g opacity="0.6" filter="url(#filter13_ii)">
<path fill-rule="evenodd" clip-rule="evenodd" d="M269.51 507.106C330.569 469.134 409.505 493.623 447.559 554.813C484.855 614.786 468.772 694.074 408.928 731.29C347.441 769.528 265.941 753.209 227.62 691.59C188.563 628.786 206.841 546.079 269.51 507.106Z" fill="#003340"/>
</g>
<path d="M301.848 568.056H281.036L255.109 584.471V604.107L279.092 589.073H279.706V672.783H301.848V568.056ZM380.688 634.891C405.028 634.891 420.318 622.158 420.216 601.857C420.318 582.528 405.54 568.056 380.688 568.056H339.778V617.147H324.898V634.891H339.778V641.641H324.898V659.385H339.778V672.783H361.767V659.385H384.625V641.641H361.767V634.891H380.688ZM361.767 617.147V586.056H380.688C392.398 586.056 398.125 593.113 398.074 602.113C398.125 611.317 392.5 617.147 380.074 617.147H361.767Z" fill="#91AAB0"/>
</g>
<defs>
<filter id="filter0_i" x="-180.609" y="-19.1543" width="1912.28" height="898.731" filterUnits="userSpaceOnUse" color-interpolation-filters="sRGB">
<feFlood flood-opacity="0" result="BackgroundImageFix"/>
<feBlend mode="normal" in="SourceGraphic" in2="BackgroundImageFix" result="shape"/>
<feColorMatrix in="SourceAlpha" type="matrix" values="0 0 0 0 0 0 0 0 0 0 0 0 0 0 0 0 0 0 127 0" result="hardAlpha"/>
<feOffset dy="10"/>
<feGaussianBlur stdDeviation="6.5"/>
<feComposite in2="hardAlpha" operator="arithmetic" k2="-1" k3="1"/>
<feColorMatrix type="matrix" values="0 0 0 0 0 0 0 0 0 0 0 0 0 0 0 0 0 0 0.15 0"/>
<feBlend mode="normal" in2="shape" result="effect1_innerShadow"/>
</filter>
<filter id="filter1_ii" x="-279.766" y="15.6465" width="2105.02" height="1701.56" filterUnits="userSpaceOnUse" color-interpolation-filters="sRGB">
<feFlood flood-opacity="0" result="BackgroundImageFix"/>
<feBlend mode="normal" in="SourceGraphic" in2="BackgroundImageFix" result="shape"/>
<feColorMatrix in="SourceAlpha" type="matrix" values="0 0 0 0 0 0 0 0 0 0 0 0 0 0 0 0 0 0 127 0" result="hardAlpha"/>
<feOffset dx="-10"/>
<feGaussianBlur stdDeviation="15"/>
<feComposite in2="hardAlpha" operator="arithmetic" k2="-1" k3="1"/>
<feColorMatrix type="matrix" values="0 0 0 0 0 0 0 0 0 0 0 0 0 0 0 0 0 0 0.5 0"/>
<feBlend mode="normal" in2="shape" result="effect1_innerShadow"/>
<feColorMatrix in="SourceAlpha" type="matrix" values="0 0 0 0 0 0 0 0 0 0 0 0 0 0 0 0 0 0 127 0" result="hardAlpha"/>
<feOffset dx="136"/>
<feGaussianBlur stdDeviation="43"/>
<feComposite in2="hardAlpha" operator="arithmetic" k2="-1" k3="1"/>
<feColorMatrix type="matrix" values="0 0 0 0 0.815686 0 0 0 0 0.921569 0 0 0 0 0.945098 0 0 0 1 0"/>
<feBlend mode="normal" in2="effect1_innerShadow" result="effect2_innerShadow"/>
</filter>
<filter id="filter2_i" x="-647.762" y="863.291" width="2699.01" height="660.598" filterUnits="userSpaceOnUse" color-interpolation-filters="sRGB">
<feFlood flood-opacity="0" result="BackgroundImageFix"/>
<feBlend mode="normal" in="SourceGraphic" in2="BackgroundImageFix" result="shape"/>
<feColorMatrix in="SourceAlpha" type="matrix" values="0 0 0 0 0 0 0 0 0 0 0 0 0 0 0 0 0 0 127 0" result="hardAlpha"/>
<feOffset dx="-10" dy="10"/>
<feGaussianBlur stdDeviation="10"/>
<feComposite in2="hardAlpha" operator="arithmetic" k2="-1" k3="1"/>
<feColorMatrix type="matrix" values="0 0 0 0 0 0 0 0 0 0 0 0 0 0 0 0 0 0 0.35 0"/>
<feBlend mode="normal" in2="shape" result="effect1_innerShadow"/>
</filter>
<filter id="filter3_i" x="-678" y="943.58" width="3178" height="615.822" filterUnits="userSpaceOnUse" color-interpolation-filters="sRGB">
<feFlood flood-opacity="0" result="BackgroundImageFix"/>
<feBlend mode="normal" in="SourceGraphic" in2="BackgroundImageFix" result="shape"/>
<feColorMatrix in="SourceAlpha" type="matrix" values="0 0 0 0 0 0 0 0 0 0 0 0 0 0 0 0 0 0 127 0" result="hardAlpha"/>
<feOffset dx="-10" dy="10"/>
<feGaussianBlur stdDeviation="10"/>
<feComposite in2="hardAlpha" operator="arithmetic" k2="-1" k3="1"/>
<feColorMatrix type="matrix" values="0 0 0 0 0 0 0 0 0 0 0 0 0 0 0 0 0 0 0.35 0"/>
<feBlend mode="normal" in2="shape" result="effect1_innerShadow"/>
</filter>
<filter id="filter4_i" x="-526" y="981.58" width="2195" height="275" filterUnits="userSpaceOnUse" color-interpolation-filters="sRGB">
<feFlood flood-opacity="0" result="BackgroundImageFix"/>
<feBlend mode="normal" in="SourceGraphic" in2="BackgroundImageFix" result="shape"/>
<feColorMatrix in="SourceAlpha" type="matrix" values="0 0 0 0 0 0 0 0 0 0 0 0 0 0 0 0 0 0 127 0" result="hardAlpha"/>
<feOffset dx="-10" dy="10"/>
<feGaussianBlur stdDeviation="10"/>
<feComposite in2="hardAlpha" operator="arithmetic" k2="-1" k3="1"/>
<feColorMatrix type="matrix" values="0 0 0 0 0 0 0 0 0 0 0 0 0 0 0 0 0 0 0.35 0"/>
<feBlend mode="normal" in2="shape" result="effect1_innerShadow"/>
</filter>
<filter id="filter5_i" x="-512" y="930.58" width="2505.77" height="760.341" filterUnits="userSpaceOnUse" color-interpolation-filters="sRGB">
<feFlood flood-opacity="0" result="BackgroundImageFix"/>
<feBlend mode="normal" in="SourceGraphic" in2="BackgroundImageFix" result="shape"/>
<feColorMatrix in="SourceAlpha" type="matrix" values="0 0 0 0 0 0 0 0 0 0 0 0 0 0 0 0 0 0 127 0" result="hardAlpha"/>
<feOffset dx="-10" dy="10"/>
<feGaussianBlur stdDeviation="10"/>
<feComposite in2="hardAlpha" operator="arithmetic" k2="-1" k3="1"/>
<feColorMatrix type="matrix" values="0 0 0 0 0 0 0 0 0 0 0 0 0 0 0 0 0 0 0.35 0"/>
<feBlend mode="normal" in2="shape" result="effect1_innerShadow"/>
</filter>
<filter id="filter6_i" x="-394" y="1069.58" width="2216.22" height="405.74" filterUnits="userSpaceOnUse" color-interpolation-filters="sRGB">
<feFlood flood-opacity="0" result="BackgroundImageFix"/>
<feBlend mode="normal" in="SourceGraphic" in2="BackgroundImageFix" result="shape"/>
<feColorMatrix in="SourceAlpha" type="matrix" values="0 0 0 0 0 0 0 0 0 0 0 0 0 0 0 0 0 0 127 0" result="hardAlpha"/>
<feOffset dx="-10" dy="10"/>
<feGaussianBlur stdDeviation="10"/>
<feComposite in2="hardAlpha" operator="arithmetic" k2="-1" k3="1"/>
<feColorMatrix type="matrix" values="0 0 0 0 0 0 0 0 0 0 0 0 0 0 0 0 0 0 0.35 0"/>
<feBlend mode="normal" in2="shape" result="effect1_innerShadow"/>
</filter>
<filter id="filter7_i" x="-138" y="1111.58" width="1703.43" height="436.094" filterUnits="userSpaceOnUse" color-interpolation-filters="sRGB">
<feFlood flood-opacity="0" result="BackgroundImageFix"/>
<feBlend mode="normal" in="SourceGraphic" in2="BackgroundImageFix" result="shape"/>
<feColorMatrix in="SourceAlpha" type="matrix" values="0 0 0 0 0 0 0 0 0 0 0 0 0 0 0 0 0 0 127 0" result="hardAlpha"/>
<feOffset dx="-10" dy="10"/>
<feGaussianBlur stdDeviation="10"/>
<feComposite in2="hardAlpha" operator="arithmetic" k2="-1" k3="1"/>
<feColorMatrix type="matrix" values="0 0 0 0 0 0 0 0 0 0 0 0 0 0 0 0 0 0 0.35 0"/>
<feBlend mode="normal" in2="shape" result="effect1_innerShadow"/>
</filter>
<filter id="filter8_i" x="-107.832" y="41.959" width="921.501" height="870.104" filterUnits="userSpaceOnUse" color-interpolation-filters="sRGB">
<feFlood flood-opacity="0" result="BackgroundImageFix"/>
<feBlend mode="normal" in="SourceGraphic" in2="BackgroundImageFix" result="shape"/>
<feColorMatrix in="SourceAlpha" type="matrix" values="0 0 0 0 0 0 0 0 0 0 0 0 0 0 0 0 0 0 127 0" result="hardAlpha"/>
<feOffset dx="-10" dy="10"/>
<feGaussianBlur stdDeviation="10"/>
<feComposite in2="hardAlpha" operator="arithmetic" k2="-1" k3="1"/>
<feColorMatrix type="matrix" values="0 0 0 0 0 0 0 0 0 0 0 0 0 0 0 0 0 0 0.35 0"/>
<feBlend mode="normal" in2="shape" result="effect1_innerShadow"/>
</filter>
<filter id="filter9_ii" x="-16.1641" y="146.473" width="736.696" height="693.834" filterUnits="userSpaceOnUse" color-interpolation-filters="sRGB">
<feFlood flood-opacity="0" result="BackgroundImageFix"/>
<feBlend mode="normal" in="SourceGraphic" in2="BackgroundImageFix" result="shape"/>
<feColorMatrix in="SourceAlpha" type="matrix" values="0 0 0 0 0 0 0 0 0 0 0 0 0 0 0 0 0 0 127 0" result="hardAlpha"/>
<feOffset dx="2" dy="-2"/>
<feGaussianBlur stdDeviation="1"/>
<feComposite in2="hardAlpha" operator="arithmetic" k2="-1" k3="1"/>
<feColorMatrix type="matrix" values="0 0 0 0 1 0 0 0 0 1 0 0 0 0 1 0 0 0 0.5 0"/>
<feBlend mode="normal" in2="shape" result="effect1_innerShadow"/>
<feColorMatrix in="SourceAlpha" type="matrix" values="0 0 0 0 0 0 0 0 0 0 0 0 0 0 0 0 0 0 127 0" result="hardAlpha"/>
<feOffset dx="-10" dy="10"/>
<feGaussianBlur stdDeviation="10"/>
<feComposite in2="hardAlpha" operator="arithmetic" k2="-1" k3="1"/>
<feColorMatrix type="matrix" values="0 0 0 0 0 0 0 0 0 0 0 0 0 0 0 0 0 0 0.35 0"/>
<feBlend mode="normal" in2="effect1_innerShadow" result="effect2_innerShadow"/>
</filter>
<filter id="filter10_ii" x="19.7695" y="206.615" width="653.677" height="646.571" filterUnits="userSpaceOnUse" color-interpolation-filters="sRGB">
<feFlood flood-opacity="0" result="BackgroundImageFix"/>
<feBlend mode="normal" in="SourceGraphic" in2="BackgroundImageFix" result="shape"/>
<feColorMatrix in="SourceAlpha" type="matrix" values="0 0 0 0 0 0 0 0 0 0 0 0 0 0 0 0 0 0 127 0" result="hardAlpha"/>
<feOffset dx="2" dy="-2"/>
<feGaussianBlur stdDeviation="1"/>
<feComposite in2="hardAlpha" operator="arithmetic" k2="-1" k3="1"/>
<feColorMatrix type="matrix" values="0 0 0 0 1 0 0 0 0 1 0 0 0 0 1 0 0 0 0.5 0"/>
<feBlend mode="normal" in2="shape" result="effect1_innerShadow"/>
<feColorMatrix in="SourceAlpha" type="matrix" values="0 0 0 0 0 0 0 0 0 0 0 0 0 0 0 0 0 0 127 0" result="hardAlpha"/>
<feOffset dx="-10" dy="10"/>
<feGaussianBlur stdDeviation="10"/>
<feComposite in2="hardAlpha" operator="arithmetic" k2="-1" k3="1"/>
<feColorMatrix type="matrix" values="0 0 0 0 0 0 0 0 0 0 0 0 0 0 0 0 0 0 0.35 0"/>
<feBlend mode="normal" in2="effect1_innerShadow" result="effect2_innerShadow"/>
</filter>
<filter id="filter11_ii" x="103.102" y="334.775" width="476.17" height="458.834" filterUnits="userSpaceOnUse" color-interpolation-filters="sRGB">
<feFlood flood-opacity="0" result="BackgroundImageFix"/>
<feBlend mode="normal" in="SourceGraphic" in2="BackgroundImageFix" result="shape"/>
<feColorMatrix in="SourceAlpha" type="matrix" values="0 0 0 0 0 0 0 0 0 0 0 0 0 0 0 0 0 0 127 0" result="hardAlpha"/>
<feOffset dx="2" dy="-2"/>
<feGaussianBlur stdDeviation="1"/>
<feComposite in2="hardAlpha" operator="arithmetic" k2="-1" k3="1"/>
<feColorMatrix type="matrix" values="0 0 0 0 1 0 0 0 0 1 0 0 0 0 1 0 0 0 0.5 0"/>
<feBlend mode="normal" in2="shape" result="effect1_innerShadow"/>
<feColorMatrix in="SourceAlpha" type="matrix" values="0 0 0 0 0 0 0 0 0 0 0 0 0 0 0 0 0 0 127 0" result="hardAlpha"/>
<feOffset dx="-10" dy="10"/>
<feGaussianBlur stdDeviation="10"/>
<feComposite in2="hardAlpha" operator="arithmetic" k2="-1" k3="1"/>
<feColorMatrix type="matrix" values="0 0 0 0 0 0 0 0 0 0 0 0 0 0 0 0 0 0 0.35 0"/>
<feBlend mode="normal" in2="effect1_innerShadow" result="effect2_innerShadow"/>
</filter>
<filter id="filter12_ii" x="104.031" y="364.42" width="475.937" height="474.974" filterUnits="userSpaceOnUse" color-interpolation-filters="sRGB">
<feFlood flood-opacity="0" result="BackgroundImageFix"/>
<feBlend mode="normal" in="SourceGraphic" in2="BackgroundImageFix" result="shape"/>
<feColorMatrix in="SourceAlpha" type="matrix" values="0 0 0 0 0 0 0 0 0 0 0 0 0 0 0 0 0 0 127 0" result="hardAlpha"/>
<feOffset dx="2" dy="-2"/>
<feGaussianBlur stdDeviation="1"/>
<feComposite in2="hardAlpha" operator="arithmetic" k2="-1" k3="1"/>
<feColorMatrix type="matrix" values="0 0 0 0 1 0 0 0 0 1 0 0 0 0 1 0 0 0 0.5 0"/>
<feBlend mode="normal" in2="shape" result="effect1_innerShadow"/>
<feColorMatrix in="SourceAlpha" type="matrix" values="0 0 0 0 0 0 0 0 0 0 0 0 0 0 0 0 0 0 127 0" result="hardAlpha"/>
<feOffset dx="-10" dy="10"/>
<feGaussianBlur stdDeviation="10"/>
<feComposite in2="hardAlpha" operator="arithmetic" k2="-1" k3="1"/>
<feColorMatrix type="matrix" values="0 0 0 0 0 0 0 0 0 0 0 0 0 0 0 0 0 0 0.35 0"/>
<feBlend mode="normal" in2="effect1_innerShadow" result="effect2_innerShadow"/>
</filter>
<filter id="filter13_ii" x="146.57" y="438.564" width="371.356" height="372.962" filterUnits="userSpaceOnUse" color-interpolation-filters="sRGB">
<feFlood flood-opacity="0" result="BackgroundImageFix"/>
<feBlend mode="normal" in="SourceGraphic" in2="BackgroundImageFix" result="shape"/>
<feColorMatrix in="SourceAlpha" type="matrix" values="0 0 0 0 0 0 0 0 0 0 0 0 0 0 0 0 0 0 127 0" result="hardAlpha"/>
<feOffset dx="2" dy="-2"/>
<feGaussianBlur stdDeviation="1"/>
<feComposite in2="hardAlpha" operator="arithmetic" k2="-1" k3="1"/>
<feColorMatrix type="matrix" values="0 0 0 0 1 0 0 0 0 1 0 0 0 0 1 0 0 0 0.5 0"/>
<feBlend mode="normal" in2="shape" result="effect1_innerShadow"/>
<feColorMatrix in="SourceAlpha" type="matrix" values="0 0 0 0 0 0 0 0 0 0 0 0 0 0 0 0 0 0 127 0" result="hardAlpha"/>
<feOffset dx="-10" dy="10"/>
<feGaussianBlur stdDeviation="10"/>
<feComposite in2="hardAlpha" operator="arithmetic" k2="-1" k3="1"/>
<feColorMatrix type="matrix" values="0 0 0 0 0 0 0 0 0 0 0 0 0 0 0 0 0 0 0.35 0"/>
<feBlend mode="normal" in2="effect1_innerShadow" result="effect2_innerShadow"/>
</filter>
<clipPath id="clip0">
<rect width="1440" height="1202" fill="white"/>
</clipPath>
</defs>
</svg>
