<svg width="1440" height="862" viewBox="0 0 1440 862" fill="none" xmlns="http://www.w3.org/2000/svg">
<g clip-path="url(#clip0)">
<g opacity="0.9" filter="url(#filter0_i)">
<path fill-rule="evenodd" clip-rule="evenodd" d="M325.257 7.69472C909.353 126.223 1308.28 7.6947 1599.26 316.195C2129.22 878.072 838.577 861.148 181.754 861.15C-58.2424 861.151 -193.522 683.079 -176.244 456.149C-156.323 194.506 70.7575 -43.9498 325.257 7.69472Z" fill="#E6F3F6"/>
</g>
<g opacity="0.9" filter="url(#filter1_i)">
<path fill-rule="evenodd" clip-rule="evenodd" d="M333.801 41.9068C840.258 218.194 1494.56 22.6484 1555.26 392.195C1622.77 803.195 930.76 805.763 344.701 849.516C135.502 865.134 -81.4531 725.642 -84.5244 498.077C-87.9193 246.533 114.802 -34.3222 333.801 41.9068Z" fill="#CEEAF0"/>
</g>
<g opacity="0.85" filter="url(#filter2_i)">
<path fill-rule="evenodd" clip-rule="evenodd" d="M288.128 119.486C482.75 76.9595 702.85 242.648 745.303 436.934C780.061 596.002 650.276 767.564 490.933 802.382C210.499 863.66 18.7266 755.189 -20.2243 576.933C-66.1736 366.649 77.4803 165.515 288.128 119.486Z" fill="#AAD0D9"/>
</g>
<g opacity="0.8" filter="url(#filter3_ii)">
<path fill-rule="evenodd" clip-rule="evenodd" d="M21.2992 564.199C6.9033 397.599 97.0852 193.838 263.685 179.442C444.694 163.801 674.49 302.602 690.131 483.611C699.975 701.475 510.986 786.603 340.78 801.311C185.984 814.687 34.6751 718.994 21.2992 564.199Z" fill="#7DB4C0"/>
</g>
<g opacity="0.75" filter="url(#filter4_ii)">
<path fill-rule="evenodd" clip-rule="evenodd" d="M73.9221 485.449C101.26 341.923 228.169 224.478 371.695 251.816C512.174 278.574 641.093 447.905 614.336 588.384C587.874 727.31 421.708 812.267 282.782 785.805C140.776 758.757 46.8737 627.455 73.9221 485.449Z" fill="#519AAB"/>
</g>
<g opacity="0.7" filter="url(#filter5_ii)">
<path fill-rule="evenodd" clip-rule="evenodd" d="M570.469 573.336C572.421 700.87 471.055 774.825 343.688 776.774C213.116 778.773 129.677 704.374 113.001 578.365C111.112 454.932 200.205 339.035 323.475 337.148C443.343 335.313 568.632 453.31 570.469 573.336Z" fill="#337D8E"/>
</g>
<g opacity="0.65" filter="url(#filter6_ii)">
<path fill-rule="evenodd" clip-rule="evenodd" d="M261.868 447.301C328.2 406.05 442.685 436.028 483.921 502.335C527.935 573.109 520.308 681.077 449.507 725.107C366.384 776.8 253.272 771.484 201.598 688.392C152.269 609.071 145.844 519.455 261.868 447.301Z" fill="#215967"/>
</g>
<g opacity="0.6" filter="url(#filter7_ii)">
<path fill-rule="evenodd" clip-rule="evenodd" d="M265.768 503.754C326.826 465.783 405.763 490.271 443.817 551.461C481.113 611.434 465.03 690.722 405.186 727.939C343.699 766.176 262.198 749.858 223.878 688.239C184.821 625.434 203.099 542.727 265.768 503.754Z" fill="#003340"/>
</g>
<path d="M301.975 570.909H283.475L260.43 585.5V602.955L281.748 589.591H282.293V664H301.975V570.909ZM372.055 630.318C393.691 630.318 407.282 619 407.191 600.955C407.282 583.773 394.146 570.909 372.055 570.909H335.691V614.545H322.464V630.318H335.691V636.318H322.464V652.091H335.691V664H355.237V652.091H375.555V636.318H355.237V630.318H372.055ZM355.237 614.545V586.909H372.055C382.464 586.909 387.555 593.182 387.509 601.182C387.555 609.364 382.555 614.545 371.509 614.545H355.237Z" fill="#B6D0D8"/>
</g>
<defs>
<filter id="filter0_i" x="-184.352" y="-19.1543" width="1912.28" height="898.731" filterUnits="userSpaceOnUse" color-interpolation-filters="sRGB">
<feFlood flood-opacity="0" result="BackgroundImageFix"/>
<feBlend mode="normal" in="SourceGraphic" in2="BackgroundImageFix" result="shape"/>
<feColorMatrix in="SourceAlpha" type="matrix" values="0 0 0 0 0 0 0 0 0 0 0 0 0 0 0 0 0 0 127 0" result="hardAlpha"/>
<feOffset dy="10"/>
<feGaussianBlur stdDeviation="6.5"/>
<feComposite in2="hardAlpha" operator="arithmetic" k2="-1" k3="1"/>
<feColorMatrix type="matrix" values="0 0 0 0 0 0 0 0 0 0 0 0 0 0 0 0 0 0 0.15 0"/>
<feBlend mode="normal" in2="shape" result="effect1_innerShadow"/>
</filter>
<filter id="filter1_i" x="-100.789" y="11.7012" width="1665.89" height="854.338" filterUnits="userSpaceOnUse" color-interpolation-filters="sRGB">
<feFlood flood-opacity="0" result="BackgroundImageFix"/>
<feBlend mode="normal" in="SourceGraphic" in2="BackgroundImageFix" result="shape"/>
<feColorMatrix in="SourceAlpha" type="matrix" values="0 0 0 0 0 0 0 0 0 0 0 0 0 0 0 0 0 0 127 0" result="hardAlpha"/>
<feOffset dx="-10" dy="10"/>
<feGaussianBlur stdDeviation="10"/>
<feComposite in2="hardAlpha" operator="arithmetic" k2="-1" k3="1"/>
<feColorMatrix type="matrix" values="0 0 0 0 0 0 0 0 0 0 0 0 0 0 0 0 0 0 0.15 0"/>
<feBlend mode="normal" in2="shape" result="effect1_innerShadow"/>
</filter>
<filter id="filter2_i" x="-111.574" y="38.6074" width="921.501" height="870.104" filterUnits="userSpaceOnUse" color-interpolation-filters="sRGB">
<feFlood flood-opacity="0" result="BackgroundImageFix"/>
<feBlend mode="normal" in="SourceGraphic" in2="BackgroundImageFix" result="shape"/>
<feColorMatrix in="SourceAlpha" type="matrix" values="0 0 0 0 0 0 0 0 0 0 0 0 0 0 0 0 0 0 127 0" result="hardAlpha"/>
<feOffset dx="-10" dy="10"/>
<feGaussianBlur stdDeviation="10"/>
<feComposite in2="hardAlpha" operator="arithmetic" k2="-1" k3="1"/>
<feColorMatrix type="matrix" values="0 0 0 0 0 0 0 0 0 0 0 0 0 0 0 0 0 0 0.35 0"/>
<feBlend mode="normal" in2="shape" result="effect1_innerShadow"/>
</filter>
<filter id="filter3_ii" x="-19.9062" y="143.121" width="735.696" height="693.834" filterUnits="userSpaceOnUse" color-interpolation-filters="sRGB">
<feFlood flood-opacity="0" result="BackgroundImageFix"/>
<feBlend mode="normal" in="SourceGraphic" in2="BackgroundImageFix" result="shape"/>
<feColorMatrix in="SourceAlpha" type="matrix" values="0 0 0 0 0 0 0 0 0 0 0 0 0 0 0 0 0 0 127 0" result="hardAlpha"/>
<feOffset dx="1" dy="-2"/>
<feGaussianBlur stdDeviation="1"/>
<feComposite in2="hardAlpha" operator="arithmetic" k2="-1" k3="1"/>
<feColorMatrix type="matrix" values="0 0 0 0 1 0 0 0 0 1 0 0 0 0 1 0 0 0 0.5 0"/>
<feBlend mode="normal" in2="shape" result="effect1_innerShadow"/>
<feColorMatrix in="SourceAlpha" type="matrix" values="0 0 0 0 0 0 0 0 0 0 0 0 0 0 0 0 0 0 127 0" result="hardAlpha"/>
<feOffset dx="-10" dy="10"/>
<feGaussianBlur stdDeviation="10"/>
<feComposite in2="hardAlpha" operator="arithmetic" k2="-1" k3="1"/>
<feColorMatrix type="matrix" values="0 0 0 0 0 0 0 0 0 0 0 0 0 0 0 0 0 0 0.35 0"/>
<feBlend mode="normal" in2="effect1_innerShadow" result="effect2_innerShadow"/>
</filter>
<filter id="filter4_ii" x="16.0273" y="203.264" width="652.677" height="646.571" filterUnits="userSpaceOnUse" color-interpolation-filters="sRGB">
<feFlood flood-opacity="0" result="BackgroundImageFix"/>
<feBlend mode="normal" in="SourceGraphic" in2="BackgroundImageFix" result="shape"/>
<feColorMatrix in="SourceAlpha" type="matrix" values="0 0 0 0 0 0 0 0 0 0 0 0 0 0 0 0 0 0 127 0" result="hardAlpha"/>
<feOffset dx="1" dy="-2"/>
<feGaussianBlur stdDeviation="1"/>
<feComposite in2="hardAlpha" operator="arithmetic" k2="-1" k3="1"/>
<feColorMatrix type="matrix" values="0 0 0 0 1 0 0 0 0 1 0 0 0 0 1 0 0 0 0.5 0"/>
<feBlend mode="normal" in2="shape" result="effect1_innerShadow"/>
<feColorMatrix in="SourceAlpha" type="matrix" values="0 0 0 0 0 0 0 0 0 0 0 0 0 0 0 0 0 0 127 0" result="hardAlpha"/>
<feOffset dx="-10" dy="10"/>
<feGaussianBlur stdDeviation="10"/>
<feComposite in2="hardAlpha" operator="arithmetic" k2="-1" k3="1"/>
<feColorMatrix type="matrix" values="0 0 0 0 0 0 0 0 0 0 0 0 0 0 0 0 0 0 0.35 0"/>
<feBlend mode="normal" in2="effect1_innerShadow" result="effect2_innerShadow"/>
</filter>
<filter id="filter5_ii" x="99.3594" y="331.424" width="475.17" height="458.834" filterUnits="userSpaceOnUse" color-interpolation-filters="sRGB">
<feFlood flood-opacity="0" result="BackgroundImageFix"/>
<feBlend mode="normal" in="SourceGraphic" in2="BackgroundImageFix" result="shape"/>
<feColorMatrix in="SourceAlpha" type="matrix" values="0 0 0 0 0 0 0 0 0 0 0 0 0 0 0 0 0 0 127 0" result="hardAlpha"/>
<feOffset dx="1" dy="-2"/>
<feGaussianBlur stdDeviation="1"/>
<feComposite in2="hardAlpha" operator="arithmetic" k2="-1" k3="1"/>
<feColorMatrix type="matrix" values="0 0 0 0 1 0 0 0 0 1 0 0 0 0 1 0 0 0 0.5 0"/>
<feBlend mode="normal" in2="shape" result="effect1_innerShadow"/>
<feColorMatrix in="SourceAlpha" type="matrix" values="0 0 0 0 0 0 0 0 0 0 0 0 0 0 0 0 0 0 127 0" result="hardAlpha"/>
<feOffset dx="-10" dy="10"/>
<feGaussianBlur stdDeviation="10"/>
<feComposite in2="hardAlpha" operator="arithmetic" k2="-1" k3="1"/>
<feColorMatrix type="matrix" values="0 0 0 0 0 0 0 0 0 0 0 0 0 0 0 0 0 0 0.35 0"/>
<feBlend mode="normal" in2="effect1_innerShadow" result="effect2_innerShadow"/>
</filter>
<filter id="filter6_ii" x="100.289" y="361.068" width="474.937" height="474.974" filterUnits="userSpaceOnUse" color-interpolation-filters="sRGB">
<feFlood flood-opacity="0" result="BackgroundImageFix"/>
<feBlend mode="normal" in="SourceGraphic" in2="BackgroundImageFix" result="shape"/>
<feColorMatrix in="SourceAlpha" type="matrix" values="0 0 0 0 0 0 0 0 0 0 0 0 0 0 0 0 0 0 127 0" result="hardAlpha"/>
<feOffset dx="1" dy="-2"/>
<feGaussianBlur stdDeviation="1"/>
<feComposite in2="hardAlpha" operator="arithmetic" k2="-1" k3="1"/>
<feColorMatrix type="matrix" values="0 0 0 0 1 0 0 0 0 1 0 0 0 0 1 0 0 0 0.5 0"/>
<feBlend mode="normal" in2="shape" result="effect1_innerShadow"/>
<feColorMatrix in="SourceAlpha" type="matrix" values="0 0 0 0 0 0 0 0 0 0 0 0 0 0 0 0 0 0 127 0" result="hardAlpha"/>
<feOffset dx="-10" dy="10"/>
<feGaussianBlur stdDeviation="10"/>
<feComposite in2="hardAlpha" operator="arithmetic" k2="-1" k3="1"/>
<feColorMatrix type="matrix" values="0 0 0 0 0 0 0 0 0 0 0 0 0 0 0 0 0 0 0.35 0"/>
<feBlend mode="normal" in2="effect1_innerShadow" result="effect2_innerShadow"/>
</filter>
<filter id="filter7_ii" x="142.828" y="435.213" width="370.356" height="372.962" filterUnits="userSpaceOnUse" color-interpolation-filters="sRGB">
<feFlood flood-opacity="0" result="BackgroundImageFix"/>
<feBlend mode="normal" in="SourceGraphic" in2="BackgroundImageFix" result="shape"/>
<feColorMatrix in="SourceAlpha" type="matrix" values="0 0 0 0 0 0 0 0 0 0 0 0 0 0 0 0 0 0 127 0" result="hardAlpha"/>
<feOffset dx="1" dy="-2"/>
<feGaussianBlur stdDeviation="1"/>
<feComposite in2="hardAlpha" operator="arithmetic" k2="-1" k3="1"/>
<feColorMatrix type="matrix" values="0 0 0 0 1 0 0 0 0 1 0 0 0 0 1 0 0 0 0.5 0"/>
<feBlend mode="normal" in2="shape" result="effect1_innerShadow"/>
<feColorMatrix in="SourceAlpha" type="matrix" values="0 0 0 0 0 0 0 0 0 0 0 0 0 0 0 0 0 0 127 0" result="hardAlpha"/>
<feOffset dx="-10" dy="10"/>
<feGaussianBlur stdDeviation="10"/>
<feComposite in2="hardAlpha" operator="arithmetic" k2="-1" k3="1"/>
<feColorMatrix type="matrix" values="0 0 0 0 0 0 0 0 0 0 0 0 0 0 0 0 0 0 0.35 0"/>
<feBlend mode="normal" in2="effect1_innerShadow" result="effect2_innerShadow"/>
</filter>
<clipPath id="clip0">
<rect width="1440" height="862" fill="white"/>
</clipPath>
</defs>
</svg>
