<svg width="110" height="111" viewBox="0 0 110 111" fill="none" xmlns="http://www.w3.org/2000/svg">
<g filter="url(#filter0_d)">
<g filter="url(#filter1_i)">
<rect x="10" y="4.99609" width="90" height="90" rx="24" fill="white"/>
</g>
<path d="M25 49.9922C25 42.0357 28.1607 34.4051 33.7868 28.779C39.4129 23.1529 47.0435 19.9922 55 19.9922C62.9565 19.9922 70.5871 23.1529 76.2132 28.779C81.8393 34.4051 85 42.0357 85 49.9922C85 57.9487 81.8393 65.5793 76.2132 71.2054C70.5871 76.8315 62.9565 79.9922 55 79.9922C47.0435 79.9922 39.4129 76.8315 33.7868 71.2054C28.1607 65.5793 25 57.9487 25 49.9922ZM53.125 24.0309C50.6125 24.7959 48.1187 27.1059 46.0487 30.9872C45.5125 31.9922 45.0138 33.0872 44.5675 34.2572C47.2113 34.8459 50.0875 35.2209 53.125 35.3334V24.0309ZM40.9338 33.2634C41.4662 31.8234 42.0737 30.4734 42.7375 29.2209C43.3859 27.9949 44.1347 26.8246 44.9762 25.7222C41.7838 27.0452 38.8834 28.9847 36.4413 31.4297C37.7987 32.1197 39.3025 32.7384 40.9338 33.2672V33.2634ZM38.1588 48.1172C38.2937 44.1047 38.8637 40.2909 39.7937 36.8372C37.7639 36.188 35.7991 35.3506 33.925 34.3359C30.9383 38.346 29.1656 43.1292 28.8175 48.1172H38.155H38.1588ZM43.4088 37.8384C42.5247 41.1976 42.0215 44.6455 41.9087 48.1172H53.125V39.0834C49.7125 38.9709 46.4387 38.5397 43.4088 37.8384ZM56.875 39.0797V48.1172H68.0875C67.976 44.6456 67.4741 41.1977 66.5912 37.8384C63.5612 38.5397 60.2875 38.9672 56.875 39.0834V39.0797ZM41.9125 51.8672C42.0438 55.5684 42.5725 59.0447 43.4088 62.1459C46.6002 61.4217 49.8539 61.006 53.125 60.9047V51.8672H41.9125ZM56.875 51.8672V60.9009C60.2875 61.0134 63.5612 61.4447 66.5912 62.1459C67.4275 59.0447 67.9562 55.5684 68.0913 51.8672H56.875ZM44.5675 65.7272C45.0175 66.8972 45.5125 67.9922 46.0487 68.9972C48.1187 72.8784 50.6162 75.1847 53.125 75.9534V64.6547C50.0875 64.7672 47.2113 65.1422 44.5675 65.7309V65.7272ZM44.98 74.2622C44.1371 73.1599 43.387 71.9896 42.7375 70.7634C42.0468 69.4564 41.4442 68.1046 40.9338 66.7172C39.3911 67.213 37.8891 67.8273 36.4413 68.5547C38.8834 70.9997 41.7838 72.9392 44.9762 74.2622H44.98ZM39.7937 63.1472C38.8202 59.4618 38.2704 55.6773 38.155 51.8672H28.8175C29.1654 56.8552 30.9381 61.6385 33.925 65.6484C35.6875 64.6809 37.6562 63.8409 39.7937 63.1472ZM65.0238 74.2622C68.2146 72.94 71.1136 71.0018 73.555 68.5584C72.1083 67.8312 70.6076 67.2168 69.0662 66.7209C68.5556 68.1071 67.953 69.4576 67.2625 70.7634C66.6143 71.9896 65.8655 73.1598 65.0238 74.2622ZM56.875 64.6509V75.9534C59.3875 75.1884 61.8812 72.8784 63.9513 68.9972C64.4875 67.9922 64.9862 66.8972 65.4325 65.7272C62.6186 65.1102 59.7542 64.7512 56.875 64.6547V64.6509ZM70.2063 63.1472C72.3438 63.8409 74.3125 64.6809 76.075 65.6484C79.0619 61.6385 80.8346 56.8552 81.1825 51.8672H71.845C71.7296 55.6773 71.1798 59.4618 70.2063 63.1472ZM81.1825 48.1172C80.8346 43.1292 79.0619 38.3459 76.075 34.3359C74.3125 35.3034 72.3438 36.1434 70.2063 36.8372C71.1362 40.2872 71.7062 44.1047 71.845 48.1172H81.1825ZM67.2625 29.2209C67.9263 30.4734 68.5337 31.8234 69.07 33.2634C70.6101 32.7675 72.1096 32.1531 73.555 31.4259C71.1132 28.984 68.2143 27.0471 65.0238 25.7259C65.8413 26.7872 66.5913 27.9647 67.2625 29.2209ZM65.4325 34.2572C65.0065 33.1378 64.5118 32.0457 63.9513 30.9872C61.8812 27.1059 59.3875 24.7997 56.875 24.0309V35.3297C59.9125 35.2172 62.7887 34.8422 65.4325 34.2534V34.2572Z" fill="#05E177"/>
</g>
<defs>
<filter id="filter0_d" x="0" y="0.996094" width="110" height="110" filterUnits="userSpaceOnUse" color-interpolation-filters="sRGB">
<feFlood flood-opacity="0" result="BackgroundImageFix"/>
<feColorMatrix in="SourceAlpha" type="matrix" values="0 0 0 0 0 0 0 0 0 0 0 0 0 0 0 0 0 0 127 0" result="hardAlpha"/>
<feOffset dy="6"/>
<feGaussianBlur stdDeviation="5"/>
<feComposite in2="hardAlpha" operator="out"/>
<feColorMatrix type="matrix" values="0 0 0 0 0 0 0 0 0 0.388235 0 0 0 0 0.509804 0 0 0 0.25 0"/>
<feBlend mode="normal" in2="BackgroundImageFix" result="effect1_dropShadow"/>
<feBlend mode="normal" in="SourceGraphic" in2="effect1_dropShadow" result="shape"/>
</filter>
<filter id="filter1_i" x="10" y="4.99609" width="90" height="90" filterUnits="userSpaceOnUse" color-interpolation-filters="sRGB">
<feFlood flood-opacity="0" result="BackgroundImageFix"/>
<feBlend mode="normal" in="SourceGraphic" in2="BackgroundImageFix" result="shape"/>
<feColorMatrix in="SourceAlpha" type="matrix" values="0 0 0 0 0 0 0 0 0 0 0 0 0 0 0 0 0 0 127 0" result="hardAlpha"/>
<feOffset/>
<feGaussianBlur stdDeviation="5"/>
<feComposite in2="hardAlpha" operator="arithmetic" k2="-1" k3="1"/>
<feColorMatrix type="matrix" values="0 0 0 0 0.383333 0 0 0 0 0.519 0 0 0 0 1 0 0 0 0.25 0"/>
<feBlend mode="normal" in2="shape" result="effect1_innerShadow"/>
</filter>
</defs>
</svg>
