<svg width="28" height="28" viewBox="0 0 28 28" fill="none" xmlns="http://www.w3.org/2000/svg">
<path d="M14.0007 11.1073C13.4284 11.1073 12.869 11.277 12.3932 11.5949C11.9174 11.9129 11.5465 12.3647 11.3276 12.8934C11.1086 13.4221 11.0513 14.0039 11.1629 14.5651C11.2746 15.1264 11.5501 15.6419 11.9548 16.0465C12.3594 16.4512 12.8749 16.7268 13.4362 16.8384C13.9974 16.95 14.5792 16.8927 15.1079 16.6737C15.6366 16.4548 16.0884 16.0839 16.4064 15.6081C16.7243 15.1323 16.894 14.5729 16.894 14.0007C16.894 13.6207 16.8191 13.2445 16.6737 12.8934C16.5283 12.5424 16.3152 12.2234 16.0465 11.9548C15.7779 11.6861 15.4589 11.473 15.1079 11.3276C14.7568 11.1822 14.3806 11.1073 14.0007 11.1073ZM25.5857 8.24898C25.5795 7.34804 25.4136 6.45532 25.0957 5.61232C24.8615 4.99545 24.4992 4.43526 24.0326 3.9687C23.566 3.50214 23.0058 3.13982 22.389 2.90565C21.546 2.58769 20.6533 2.42179 19.7523 2.41565C18.2473 2.33398 17.804 2.33398 14.0007 2.33398C10.1973 2.33398 9.75398 2.33398 8.24898 2.41565C7.34804 2.42179 6.45532 2.58769 5.61232 2.90565C4.99545 3.13982 4.43526 3.50214 3.9687 3.9687C3.50214 4.43526 3.13982 4.99545 2.90565 5.61232C2.58769 6.45532 2.42179 7.34804 2.41565 8.24898C2.33398 9.75398 2.33398 10.1973 2.33398 14.0007C2.33398 17.804 2.33398 18.2473 2.41565 19.7523C2.42821 20.6564 2.59389 21.5519 2.90565 22.4007C3.13878 23.0147 3.5008 23.5716 3.96732 24.034C4.43188 24.5033 4.99327 24.8657 5.61232 25.0957C6.45532 25.4136 7.34804 25.5795 8.24898 25.5857C9.75398 25.6673 10.1973 25.6673 14.0007 25.6673C17.804 25.6673 18.2473 25.6673 19.7523 25.5857C20.6533 25.5795 21.546 25.4136 22.389 25.0957C23.008 24.8657 23.5694 24.5033 24.034 24.034C24.5005 23.5716 24.8625 23.0147 25.0957 22.4007C25.4133 21.5535 25.5792 20.657 25.5857 19.7523C25.6673 18.2473 25.6673 17.804 25.6673 14.0007C25.6673 10.1973 25.6673 9.75398 25.5857 8.24898ZM22.6223 17.5823C22.5849 18.3023 22.4312 19.0114 22.1673 19.6823C21.9408 20.242 21.6041 20.7503 21.1772 21.1772C20.7503 21.6041 20.242 21.9408 19.6823 22.1673C19.0051 22.4165 18.292 22.5544 17.5707 22.5757C16.649 22.5757 16.404 22.5757 14.0007 22.5757C11.5973 22.5757 11.3523 22.5757 10.4307 22.5757C9.70934 22.5544 8.99622 22.4165 8.31898 22.1673C7.74044 21.9523 7.21797 21.6093 6.79065 21.164C6.36793 20.7454 6.04147 20.2398 5.83398 19.6823C5.5838 19.0058 5.44969 18.2919 5.43732 17.5707C5.43732 16.649 5.43732 16.404 5.43732 14.0007C5.43732 11.5973 5.43732 11.3523 5.43732 10.4307C5.44969 9.70945 5.5838 8.99552 5.83398 8.31898C6.04898 7.74044 6.39197 7.21797 6.83732 6.79065C7.25771 6.37021 7.76279 6.04409 8.31898 5.83398C8.99622 5.58479 9.70934 5.4469 10.4307 5.42565C11.3523 5.42565 11.5973 5.42565 14.0007 5.42565C16.404 5.42565 16.649 5.42565 17.5707 5.42565C18.292 5.4469 19.0051 5.58479 19.6823 5.83398C20.2609 6.04898 20.7833 6.39197 21.2107 6.83732C21.6334 7.25586 21.9598 7.76147 22.1673 8.31898C22.4165 8.99622 22.5544 9.70934 22.5757 10.4307C22.5757 11.3523 22.5757 11.5973 22.5757 14.0007C22.5757 16.404 22.6573 16.649 22.6223 17.5707V17.5823ZM20.7557 8.90232C20.6167 8.52547 20.3977 8.18323 20.1137 7.89923C19.8297 7.61523 19.4875 7.39622 19.1107 7.25732C18.5932 7.07795 18.0482 6.99107 17.5007 7.00065C16.5907 7.00065 16.334 7.00065 14.0007 7.00065C11.6673 7.00065 11.4107 7.00065 10.5007 7.00065C9.9503 7.00603 9.40523 7.10872 8.89065 7.30399C8.51957 7.43658 8.18096 7.64665 7.89733 7.92022C7.61371 8.19379 7.39156 8.5246 7.24565 8.89065C7.07622 9.41025 6.99345 9.95418 7.00065 10.5007C7.00065 11.4107 7.00065 11.6673 7.00065 14.0007C7.00065 16.334 7.00065 16.5907 7.00065 17.5007C7.01222 18.0504 7.11472 18.5944 7.30399 19.1107C7.44289 19.4875 7.6619 19.8297 7.9459 20.1137C8.2299 20.3977 8.57213 20.6167 8.94899 20.7557C9.44676 20.9387 9.97058 21.0411 10.5007 21.059C11.4107 21.059 11.6673 21.059 14.0007 21.059C16.334 21.059 16.5907 21.059 17.5007 21.059C18.051 21.0536 18.5961 20.9509 19.1107 20.7557C19.4875 20.6167 19.8297 20.3977 20.1137 20.1137C20.3977 19.8297 20.6167 19.4875 20.7557 19.1107C20.9509 18.5961 21.0536 18.051 21.059 17.5007C21.059 16.5907 21.059 16.334 21.059 14.0007C21.059 11.6673 21.059 11.4107 21.059 10.5007C21.0593 9.94975 20.9564 9.40366 20.7557 8.89065V8.90232ZM14.0007 18.4573C13.4159 18.4573 12.837 18.342 12.2969 18.1179C11.7569 17.8937 11.2663 17.5653 10.8534 17.1513C10.4405 16.7373 10.1133 16.2459 9.89065 15.7053C9.66796 15.1646 9.55412 14.5854 9.55565 14.0007C9.55565 13.1187 9.81733 12.2566 10.3076 11.5235C10.7978 10.7903 11.4945 10.2191 12.3095 9.88212C13.1246 9.54515 14.0212 9.45758 14.8861 9.63049C15.7509 9.8034 16.545 10.229 17.1678 10.8535C17.7906 11.4779 18.2141 12.2731 18.3848 13.1384C18.5554 14.0036 18.4655 14.9001 18.1264 15.7142C17.7873 16.5284 17.2142 17.2236 16.4798 17.7119C15.7454 18.2002 14.8826 18.4596 14.0007 18.4573ZM18.6673 10.419C18.4094 10.3917 18.1707 10.2699 17.9973 10.0771C17.8238 9.88433 17.7278 9.63416 17.7278 9.37482C17.7278 9.11548 17.8238 8.86531 17.9973 8.67252C18.1707 8.47973 18.4094 8.35795 18.6673 8.33065C18.9252 8.35795 19.1639 8.47973 19.3374 8.67252C19.5108 8.86531 19.6068 9.11548 19.6068 9.37482C19.6068 9.63416 19.5108 9.88433 19.3374 10.0771C19.1639 10.2699 18.9252 10.3917 18.6673 10.419Z" fill="#80B1C0"/>
</svg>
