<svg width="65" height="24" viewBox="0 0 65 24" fill="none" xmlns="http://www.w3.org/2000/svg">
<path d="M10.9858 6.56534H14.5227C14.4716 3.45454 11.9148 1.30682 8.02841 1.30682C4.2017 1.30682 1.39773 3.42045 1.41477 6.59091C1.40625 9.16477 3.22159 10.6392 6.17045 11.3466L8.07102 11.8239C9.97159 12.2841 11.0284 12.8295 11.0369 14.0057C11.0284 15.2841 9.81818 16.1534 7.94318 16.1534C6.02557 16.1534 4.64489 15.267 4.52557 13.5199H0.954545C1.0483 17.2955 3.75 19.2472 7.9858 19.2472C12.2472 19.2472 14.7528 17.2102 14.7614 14.0142C14.7528 11.108 12.5625 9.56534 9.52841 8.88352L7.96023 8.50852C6.44318 8.15909 5.1733 7.59659 5.19886 6.34375C5.19886 5.21875 6.19602 4.39204 8.00284 4.39204C9.76705 4.39204 10.8494 5.19318 10.9858 6.56534ZM17.1754 19H20.8061V14.8409L21.7862 13.7244L25.3572 19H29.6101L24.505 11.5767L29.3629 5.90909H25.1953L21.0021 10.8778H20.8061V1.54545H17.1754V19ZM34.8771 19.2472C36.8118 19.2472 38.0646 18.4034 38.7038 17.1847H38.8061V19H42.2493V10.1705C42.2493 7.05114 39.6072 5.73864 36.6925 5.73864C33.5561 5.73864 31.4936 7.23864 30.9908 9.625L34.3487 9.89773C34.5959 9.02841 35.3714 8.3892 36.6754 8.3892C37.9112 8.3892 38.6186 9.01136 38.6186 10.0852V10.1364C38.6186 10.9801 37.7237 11.0909 35.4482 11.3125C32.8572 11.5511 30.5305 12.4205 30.5305 15.3438C30.5305 17.9347 32.38 19.2472 34.8771 19.2472ZM35.9169 16.7415C34.8004 16.7415 33.9993 16.2216 33.9993 15.2244C33.9993 14.2017 34.843 13.6989 36.1214 13.5199C36.9141 13.4091 38.2095 13.2216 38.6442 12.9318V14.321C38.6442 15.6932 37.5107 16.7415 35.9169 16.7415ZM45.0661 23.9091H48.6967V16.9034H48.8075C49.3104 17.9943 50.4098 19.2131 52.5234 19.2131C55.5064 19.2131 57.8331 16.8523 57.8331 12.4716C57.8331 7.97159 55.4041 5.73864 52.532 5.73864C50.3416 5.73864 49.2933 7.04261 48.8075 8.10795H48.6456V5.90909H45.0661V23.9091ZM48.62 12.4545C48.62 10.1193 49.6087 8.62784 51.3729 8.62784C53.1712 8.62784 54.1257 10.1875 54.1257 12.4545C54.1257 14.7386 53.1541 16.3239 51.3729 16.3239C49.6257 16.3239 48.62 14.7898 48.62 12.4545ZM60.2536 19H63.8842V5.90909H60.2536V19ZM62.0774 4.22159C63.1598 4.22159 64.0462 3.39489 64.0462 2.38068C64.0462 1.375 63.1598 0.548295 62.0774 0.548295C61.0036 0.548295 60.1172 1.375 60.1172 2.38068C60.1172 3.39489 61.0036 4.22159 62.0774 4.22159Z" fill="white"/>
</svg>
