<svg width="300" height="300" viewBox="0 0 300 300" fill="none" xmlns="http://www.w3.org/2000/svg">
<circle opacity="0.1" cx="150" cy="150" r="150" fill="url(#paint0_radial)"/>
<circle opacity="0.1" cx="150" cy="150" r="120" fill="url(#paint1_radial)"/>
<circle opacity="0.1" cx="150" cy="150" r="90" fill="url(#paint2_radial)"/>
<g filter="url(#filter0_di)">
<circle cx="150" cy="150" r="60" fill="url(#paint3_radial)"/>
<path d="M116.253 143H125.321C125.287 136.148 120.003 131.614 111.548 131.614C103.247 131.614 97.3832 136.08 97.4344 142.727C97.4173 148.182 101.201 151.216 107.389 152.545L110.866 153.295C114.753 154.148 116.082 155.119 116.116 156.705C116.082 158.426 114.514 159.636 111.48 159.636C107.849 159.636 105.701 157.932 105.548 154.727H96.548C96.5821 163.489 102.514 167.409 111.616 167.409C120.463 167.409 125.764 163.591 125.798 156.705C125.764 151.386 122.593 147.653 114.889 146L112.025 145.386C108.718 144.688 107.236 143.716 107.321 142.045C107.338 140.511 108.616 139.386 111.548 139.386C114.616 139.386 116.065 140.733 116.253 143ZM134.203 167H159.294V159.364H143.68V153.364H158.067V145.727H143.68V139.727H159.362V132.091H134.203V167ZM202.681 149.545C202.681 137.886 195.181 131.614 185.703 131.614C176.158 131.614 168.726 137.886 168.726 149.545C168.726 161.136 176.158 167.477 185.703 167.477C195.181 167.477 202.681 161.205 202.681 149.545ZM192.931 149.545C192.931 155.818 190.408 159.227 185.703 159.227C180.999 159.227 178.476 155.818 178.476 149.545C178.476 143.273 180.999 139.864 185.703 139.864C190.408 139.864 192.931 143.273 192.931 149.545Z" fill="white"/>
</g>
<defs>
<filter id="filter0_di" x="78" y="82" width="140" height="140" filterUnits="userSpaceOnUse" color-interpolation-filters="sRGB">
<feFlood flood-opacity="0" result="BackgroundImageFix"/>
<feColorMatrix in="SourceAlpha" type="matrix" values="0 0 0 0 0 0 0 0 0 0 0 0 0 0 0 0 0 0 127 0" result="hardAlpha"/>
<feOffset dx="-2" dy="2"/>
<feGaussianBlur stdDeviation="5"/>
<feComposite in2="hardAlpha" operator="out"/>
<feColorMatrix type="matrix" values="0 0 0 0 0 0 0 0 0 0.2 0 0 0 0 0.25098 0 0 0 0.25 0"/>
<feBlend mode="normal" in2="BackgroundImageFix" result="effect1_dropShadow"/>
<feBlend mode="normal" in="SourceGraphic" in2="effect1_dropShadow" result="shape"/>
<feColorMatrix in="SourceAlpha" type="matrix" values="0 0 0 0 0 0 0 0 0 0 0 0 0 0 0 0 0 0 127 0" result="hardAlpha"/>
<feOffset dx="-1" dy="1"/>
<feGaussianBlur stdDeviation="1"/>
<feComposite in2="hardAlpha" operator="arithmetic" k2="-1" k3="1"/>
<feColorMatrix type="matrix" values="0 0 0 0 1 0 0 0 0 1 0 0 0 0 1 0 0 0 1 0"/>
<feBlend mode="normal" in2="shape" result="effect2_innerShadow"/>
</filter>
<radialGradient id="paint0_radial" cx="0" cy="0" r="1" gradientUnits="userSpaceOnUse" gradientTransform="translate(33.3333 70.8333) rotate(25.3307) scale(735.278)">
<stop stop-color="#05E177"/>
<stop offset="1" stop-color="#00C2FF"/>
</radialGradient>
<radialGradient id="paint1_radial" cx="0" cy="0" r="1" gradientUnits="userSpaceOnUse" gradientTransform="translate(56.6667 86.6667) rotate(25.3307) scale(588.222)">
<stop stop-color="#05E177"/>
<stop offset="1" stop-color="#00C2FF"/>
</radialGradient>
<radialGradient id="paint2_radial" cx="0" cy="0" r="1" gradientUnits="userSpaceOnUse" gradientTransform="translate(80 102.5) rotate(25.3307) scale(441.167)">
<stop stop-color="#05E177"/>
<stop offset="1" stop-color="#00C2FF"/>
</radialGradient>
<radialGradient id="paint3_radial" cx="0" cy="0" r="1" gradientUnits="userSpaceOnUse" gradientTransform="translate(103.333 118.333) rotate(25.3307) scale(294.111)">
<stop stop-color="#05E177"/>
<stop offset="1" stop-color="#00C2FF"/>
</radialGradient>
</defs>
</svg>
