<svg width="300" height="300" viewBox="0 0 300 300" fill="none" xmlns="http://www.w3.org/2000/svg">
<circle opacity="0.1" cx="150" cy="150" r="150" fill="url(#paint0_radial)"/>
<circle opacity="0.1" cx="150" cy="150" r="120" fill="url(#paint1_radial)"/>
<circle opacity="0.1" cx="150" cy="150" r="90" fill="url(#paint2_radial)"/>
<g filter="url(#filter0_di)">
<circle cx="150" cy="150" r="60" fill="url(#paint3_radial)"/>
</g>
<path d="M128.53 133.068C116.564 133.068 106.848 142.682 106.848 154.273C106.848 166 116.564 175.477 128.53 175.477C137.121 175.477 143.428 171.216 147.519 167.534C148.576 166.477 149.292 165.727 150.178 164.705C150.928 165.659 151.644 166.375 152.871 167.534C157.098 171.386 163.337 175.477 171.826 175.477C183.826 175.477 193.542 166 193.542 154.273C193.542 142.682 183.826 133.068 171.826 133.068C163.507 133.068 157.03 137.227 152.701 141.284C151.712 142.239 150.928 143.023 150.178 143.977C149.36 143.023 148.644 142.307 147.587 141.284C143.36 137.295 137.121 133.068 128.53 133.068ZM119.598 154.273C119.598 149.67 123.621 145.75 128.53 145.75C132.451 145.75 135.928 147.795 138.689 150.386C139.644 151.307 141.417 153.216 142.235 154.273C141.519 155.295 140.428 156.727 138.689 158.295C135.655 161.023 132.451 162.795 128.53 162.795C123.621 162.795 119.598 159.011 119.598 154.273ZM180.689 154.273C180.689 159.011 176.769 162.795 171.826 162.795C167.837 162.795 164.564 160.955 161.701 158.295C160.132 156.795 159.042 155.568 158.155 154.273C158.837 153.455 160.473 151.58 161.701 150.386C164.292 147.898 167.837 145.75 171.826 145.75C176.769 145.75 180.689 149.67 180.689 154.273Z" fill="white"/>
<defs>
<filter id="filter0_di" x="78" y="82" width="140" height="140" filterUnits="userSpaceOnUse" color-interpolation-filters="sRGB">
<feFlood flood-opacity="0" result="BackgroundImageFix"/>
<feColorMatrix in="SourceAlpha" type="matrix" values="0 0 0 0 0 0 0 0 0 0 0 0 0 0 0 0 0 0 127 0" result="hardAlpha"/>
<feOffset dx="-2" dy="2"/>
<feGaussianBlur stdDeviation="5"/>
<feComposite in2="hardAlpha" operator="out"/>
<feColorMatrix type="matrix" values="0 0 0 0 0 0 0 0 0 0.2 0 0 0 0 0.25098 0 0 0 0.25 0"/>
<feBlend mode="normal" in2="BackgroundImageFix" result="effect1_dropShadow"/>
<feBlend mode="normal" in="SourceGraphic" in2="effect1_dropShadow" result="shape"/>
<feColorMatrix in="SourceAlpha" type="matrix" values="0 0 0 0 0 0 0 0 0 0 0 0 0 0 0 0 0 0 127 0" result="hardAlpha"/>
<feOffset dx="-1" dy="1"/>
<feGaussianBlur stdDeviation="1"/>
<feComposite in2="hardAlpha" operator="arithmetic" k2="-1" k3="1"/>
<feColorMatrix type="matrix" values="0 0 0 0 1 0 0 0 0 1 0 0 0 0 1 0 0 0 1 0"/>
<feBlend mode="normal" in2="shape" result="effect2_innerShadow"/>
</filter>
<radialGradient id="paint0_radial" cx="0" cy="0" r="1" gradientUnits="userSpaceOnUse" gradientTransform="translate(33.3333 70.8333) rotate(25.3307) scale(735.278)">
<stop stop-color="#05E177"/>
<stop offset="1" stop-color="#00C2FF"/>
</radialGradient>
<radialGradient id="paint1_radial" cx="0" cy="0" r="1" gradientUnits="userSpaceOnUse" gradientTransform="translate(56.6667 86.6667) rotate(25.3307) scale(588.222)">
<stop stop-color="#05E177"/>
<stop offset="1" stop-color="#00C2FF"/>
</radialGradient>
<radialGradient id="paint2_radial" cx="0" cy="0" r="1" gradientUnits="userSpaceOnUse" gradientTransform="translate(80 102.5) rotate(25.3307) scale(441.167)">
<stop stop-color="#05E177"/>
<stop offset="1" stop-color="#00C2FF"/>
</radialGradient>
<radialGradient id="paint3_radial" cx="0" cy="0" r="1" gradientUnits="userSpaceOnUse" gradientTransform="translate(103.333 118.333) rotate(25.3307) scale(294.111)">
<stop stop-color="#05E177"/>
<stop offset="1" stop-color="#00C2FF"/>
</radialGradient>
</defs>
</svg>
