<svg width="300" height="300" viewBox="0 0 300 300" fill="none" xmlns="http://www.w3.org/2000/svg">
<circle opacity="0.1" cx="150" cy="150" r="150" fill="url(#paint0_radial)"/>
<circle opacity="0.1" cx="150" cy="150" r="120" fill="url(#paint1_radial)"/>
<circle opacity="0.1" cx="150" cy="150" r="90" fill="url(#paint2_radial)"/>
<g filter="url(#filter0_di)">
<circle cx="150" cy="150" r="60" fill="url(#paint3_radial)"/>
<path d="M119.983 132.091H111.256L102.665 137.341V145.386L110.302 140.818H110.506V167H119.983V132.091ZM130.928 139.727H141.428V167H150.769V139.727H161.269V132.091H130.928V139.727ZM169.636 167H186.068C193.653 167 198.34 162.858 198.34 157.114C198.34 152.188 194.71 148.966 190.227 148.795V148.455C194.267 147.653 196.977 144.67 196.977 140.818C196.977 135.5 192.75 132.091 184.772 132.091H169.636V167ZM179.113 159.432V152.068H183.681C186.562 152.068 188.318 153.432 188.318 155.886C188.318 158.222 186.733 159.432 183.545 159.432H179.113ZM179.113 146.205V139.523H183.136C185.488 139.523 187.227 140.716 187.227 142.864C187.227 145.011 185.488 146.205 183 146.205H179.113Z" fill="white"/>
</g>
<defs>
<filter id="filter0_di" x="78" y="82" width="140" height="140" filterUnits="userSpaceOnUse" color-interpolation-filters="sRGB">
<feFlood flood-opacity="0" result="BackgroundImageFix"/>
<feColorMatrix in="SourceAlpha" type="matrix" values="0 0 0 0 0 0 0 0 0 0 0 0 0 0 0 0 0 0 127 0" result="hardAlpha"/>
<feOffset dx="-2" dy="2"/>
<feGaussianBlur stdDeviation="5"/>
<feComposite in2="hardAlpha" operator="out"/>
<feColorMatrix type="matrix" values="0 0 0 0 0 0 0 0 0 0.2 0 0 0 0 0.25098 0 0 0 0.25 0"/>
<feBlend mode="normal" in2="BackgroundImageFix" result="effect1_dropShadow"/>
<feBlend mode="normal" in="SourceGraphic" in2="effect1_dropShadow" result="shape"/>
<feColorMatrix in="SourceAlpha" type="matrix" values="0 0 0 0 0 0 0 0 0 0 0 0 0 0 0 0 0 0 127 0" result="hardAlpha"/>
<feOffset dx="-1" dy="1"/>
<feGaussianBlur stdDeviation="1"/>
<feComposite in2="hardAlpha" operator="arithmetic" k2="-1" k3="1"/>
<feColorMatrix type="matrix" values="0 0 0 0 1 0 0 0 0 1 0 0 0 0 1 0 0 0 1 0"/>
<feBlend mode="normal" in2="shape" result="effect2_innerShadow"/>
</filter>
<radialGradient id="paint0_radial" cx="0" cy="0" r="1" gradientUnits="userSpaceOnUse" gradientTransform="translate(33.3333 70.8333) rotate(25.3307) scale(735.278)">
<stop stop-color="#05E177"/>
<stop offset="1" stop-color="#00C2FF"/>
</radialGradient>
<radialGradient id="paint1_radial" cx="0" cy="0" r="1" gradientUnits="userSpaceOnUse" gradientTransform="translate(56.6667 86.6667) rotate(25.3307) scale(588.222)">
<stop stop-color="#05E177"/>
<stop offset="1" stop-color="#00C2FF"/>
</radialGradient>
<radialGradient id="paint2_radial" cx="0" cy="0" r="1" gradientUnits="userSpaceOnUse" gradientTransform="translate(80 102.5) rotate(25.3307) scale(441.167)">
<stop stop-color="#05E177"/>
<stop offset="1" stop-color="#00C2FF"/>
</radialGradient>
<radialGradient id="paint3_radial" cx="0" cy="0" r="1" gradientUnits="userSpaceOnUse" gradientTransform="translate(103.333 118.333) rotate(25.3307) scale(294.111)">
<stop stop-color="#05E177"/>
<stop offset="1" stop-color="#00C2FF"/>
</radialGradient>
</defs>
</svg>
