<svg width="375" height="390" viewBox="0 0 375 390" fill="none" xmlns="http://www.w3.org/2000/svg">
<g clip-path="url(#clip0)">
<rect width="375" height="390" fill="white"/>
<path fill-rule="evenodd" clip-rule="evenodd" d="M176.099 110.869C223.558 142.744 264.975 102.168 297.994 116.728C309.984 122.015 307.396 130.701 330.965 157.74C357.424 188.094 427.035 39.3337 431.379 80.5101C436.037 124.672 457.255 325.378 431.432 360.267C417.483 379.114 372.446 353.906 364.198 376.245C352.745 407.262 306.223 394.11 274.775 387.963C214.826 376.245 223.927 381.007 179.856 394.354C139.586 406.551 100.122 402.769 66.4543 376.245C35.2305 351.647 32.7533 366.866 12.1089 331.814C-6.86854 299.592 -44.9371 375.875 -33.9917 339.663C-20.328 294.457 -31.0259 311.343 -29.9614 263.862C-28.5107 199.157 -68.9255 61 -22.9429 61C16.1536 61 43.365 61.1882 91.4573 66.3264C119.85 69.3599 145.096 90.0453 176.099 110.869Z" fill="#003340"/>
<g filter="url(#filter0_d)">
<path fill-rule="evenodd" clip-rule="evenodd" d="M176 242.315C223.5 272.238 264.953 234.147 298 247.815C310 252.779 307.411 260.932 331 286.315C357.482 314.81 427.153 175.161 431.5 213.816C436.163 255.273 457.398 443.686 431.554 476.438C417.592 494.132 372.516 470.467 364.261 491.439C352.798 520.556 306.236 508.209 274.761 502.439C214.761 491.439 223.869 495.909 179.761 508.439C139.455 519.888 99.9578 516.338 66.2606 491.439C35.0099 468.347 32.5305 482.633 11.8683 449.728C-7.12548 419.48 -45.2269 491.091 -34.2721 457.097C-20.5965 414.659 -31.3036 430.512 -30.2382 385.938C-28.7863 325.196 -31.5223 242.315 14.5 242.315C53.6302 242.315 39.3662 269.176 87.5 274C115.917 276.848 144.97 222.767 176 242.315Z" fill="#2C6979"/>
</g>
<g filter="url(#filter1_d)">
<path fill-rule="evenodd" clip-rule="evenodd" d="M177.002 271.817C224.502 301.741 261.453 249.148 294.5 262.816C310.5 269.434 312.412 274.95 336.002 300.333C362.484 328.828 427.423 247.163 431.77 285.818C436.433 327.275 457.615 468.872 431.77 501.625C417.808 519.318 372.733 495.653 364.477 516.625C353.015 545.742 306.453 533.395 274.977 527.625C214.977 516.625 224.085 521.095 179.977 533.625C139.672 545.074 100.174 541.524 66.4771 516.625C35.2264 493.533 32.747 507.819 12.0848 474.914C-6.90898 444.666 -45.0104 516.277 -34.0556 482.283C-20.38 439.845 -31.0871 455.698 -30.0217 411.124C-28.5698 350.382 -61.022 263.817 -14.9997 263.817C24.1304 263.817 30.8662 280.994 79 285.818C107.417 288.665 145.971 252.269 177.002 271.817Z" fill="#408899"/>
</g>
<g filter="url(#filter2_d)">
<path fill-rule="evenodd" clip-rule="evenodd" d="M177 313.815C224.5 343.739 247.953 259.647 281 273.315C313.023 286.56 312.411 311.432 336 336.815C362.482 365.311 407.094 251.45 411.441 290.104C416.104 331.562 457.613 505.355 431.768 538.107C417.807 555.801 372.731 532.136 364.475 553.107C353.013 582.224 306.451 569.878 274.975 564.107C214.975 553.107 224.084 557.577 179.975 570.107C139.67 581.557 100.173 578.006 66.4754 553.107C35.2247 530.016 32.7453 544.302 12.0831 511.397C-6.91069 481.149 -45.012 552.76 -34.0572 518.765C-20.3817 476.328 -31.0888 492.18 -30.0234 447.607C-28.5716 386.865 -39.5223 283.816 6.5 283.816C45.6302 283.816 42.3662 306.492 90.5 311.316C118.917 314.164 145.97 294.267 177 313.815Z" fill="#87BAC6"/>
</g>
<g filter="url(#filter3_d)">
<path fill-rule="evenodd" clip-rule="evenodd" d="M194.5 340.605C242 370.528 247.453 291.248 280.5 304.916C312.523 318.16 314.411 336.722 338 362.105C364.482 390.6 406.653 291.45 411 330.105C415.663 371.562 457.172 545.355 431.327 578.107C417.365 595.801 372.29 572.136 364.034 593.107C352.572 622.225 306.009 609.878 274.534 604.107C214.534 593.107 223.642 597.578 179.534 610.107C139.229 621.557 99.7312 618.007 66.034 593.107C34.7833 570.016 32.3039 584.302 11.6417 551.397C-7.35209 521.149 -45.4534 592.76 -34.4986 558.766C-20.8231 516.328 -31.5303 532.181 -30.4648 487.607C-29.013 426.865 -30.4648 304.915 15.5574 304.915C54.6876 304.915 50.9236 343.207 99.0574 348.031C127.475 350.878 163.47 321.057 194.5 340.605Z" fill="#B0D4DD"/>
</g>
<g filter="url(#filter4_d)">
<path fill-rule="evenodd" clip-rule="evenodd" d="M176.553 362.601C226.029 392.521 245.988 313.248 280.411 326.915C313.767 340.158 301.454 358.718 326.025 384.099C353.609 412.591 397.535 313.451 402.063 352.102C406.92 393.555 450.156 567.332 423.236 600.081C408.693 617.772 361.742 594.11 353.142 615.079C341.203 644.193 292.703 631.848 259.918 626.078C197.42 615.079 206.908 619.549 160.964 632.077C118.981 643.526 77.8398 639.976 42.7402 615.079C10.1889 591.99 7.60635 606.275 -13.9158 573.373C-33.7001 543.128 -73.3871 614.732 -61.9764 580.741C-47.7317 538.307 -58.8845 554.158 -57.7747 509.589C-56.2624 448.853 -57.7747 326.915 -9.8371 326.915C30.9216 326.915 27.0009 365.203 77.138 370.026C106.738 372.873 144.231 343.055 176.553 362.601Z" fill="#E6F3F6"/>
</g>
<g filter="url(#filter5_d)">
<path fill-rule="evenodd" clip-rule="evenodd" d="M167.638 112C129.138 93.4996 115.468 193.717 74.9985 191.499C1.4985 187.472 -72.5015 150.5 -36.5015 89.4996C-16.7301 55.9981 -73.1506 98.1548 -77.498 59.5002C-82.1607 18.0427 -109.999 18.9899 -84.1547 -13.7621C-70.1929 -31.4556 -25.1178 -7.79077 -16.8621 -28.7621C-5.39954 -57.8794 41.1625 -45.5326 72.6379 -39.7621C132.638 -28.7621 123.53 -33.2325 167.638 -45.7621C207.943 -57.2115 247.441 -53.6614 281.138 -28.7621C312.389 -5.6707 314.868 -19.957 335.53 12.948C354.524 43.196 392.625 -28.4147 381.671 5.5798C367.995 48.0173 378.702 32.1648 377.637 76.738C376.185 137.48 528.669 216.475 377.638 243.5C330.135 251.999 303.887 177.659 255.999 184.5C220.999 189.5 206.138 130.5 167.638 112Z" fill="#2C6979"/>
</g>
<g filter="url(#filter6_d)">
<path fill-rule="evenodd" clip-rule="evenodd" d="M150.502 79.4996C112.002 60.9996 113.002 173.223 72.6433 169.5C17.6889 164.43 -49.4983 147 -13.4983 85.9996C6.2731 52.498 -73.1451 54.1551 -77.4926 15.5006C-82.1552 -25.9569 -109.994 -25.0098 -84.1492 -57.7619C-70.1873 -75.4553 -25.1124 -51.7905 -16.8567 -72.7619C-5.39413 -101.879 41.1679 -89.5323 72.6433 -83.7619C132.643 -72.7619 123.535 -77.2322 167.643 -89.7619C207.949 -101.211 247.446 -97.6611 281.143 -72.7619C312.394 -49.6704 314.873 -63.9566 335.536 -31.0516C354.529 -0.80365 392.631 -72.4144 381.676 -38.4198C368.001 4.01764 378.708 -11.8349 377.642 32.7384C376.19 93.4805 509.532 184.475 358.501 211.5C310.998 219.999 295.391 140.658 247.502 147.5C212.502 152.5 189.002 97.9996 150.502 79.4996Z" fill="#408899"/>
</g>
<g filter="url(#filter7_d)">
<path fill-rule="evenodd" clip-rule="evenodd" d="M181.5 42.5C134 12.5766 78.5456 149.669 45.4983 136.001C13.4753 122.756 6.72723 89.8838 -16.8622 64.5007C-43.344 36.0055 -73.1507 25.1564 -77.4981 -13.4981C-82.1608 -54.9556 -110 -54.0082 -84.1552 -86.7603C-70.1933 -104.454 -25.118 -80.7889 -16.8622 -101.76C-5.39972 -130.878 41.1624 -118.531 72.6378 -112.76C132.638 -101.76 123.529 -106.231 167.638 -118.76C207.943 -130.21 247.44 -126.66 281.138 -101.76C312.388 -78.6689 314.868 -92.9553 335.53 -60.0503C354.524 -29.8024 392.625 -101.413 381.67 -67.4185C367.995 -24.981 378.702 -40.8336 377.637 3.73969C376.185 64.4818 473.497 276 357.998 175.001C328.542 149.243 304.887 129.159 256.998 136.001C221.998 141.001 229 72.4234 181.5 42.5Z" fill="#87BAC6"/>
</g>
<g filter="url(#filter8_d)">
<path fill-rule="evenodd" clip-rule="evenodd" d="M195.5 24C148 -5.92345 65.0508 127.169 32.0035 113.501C-0.0194702 100.257 19.5895 49.383 -4 24C-30.4818 -4.49527 -73.649 -18.8443 -77.9965 -57.4988C-82.6591 -98.9563 -110.498 -98.009 -84.6535 -130.761C-70.6916 -148.455 -25.6163 -124.79 -17.3606 -145.761C-5.89804 -174.878 40.664 -162.532 72.1394 -156.761C132.139 -145.761 123.031 -150.231 167.139 -162.761C207.445 -174.211 246.942 -170.66 280.639 -145.761C311.89 -122.67 314.369 -136.956 335.032 -104.051C354.025 -73.8031 392.127 -145.414 381.172 -111.419C367.496 -68.9818 378.204 -84.8343 377.138 -40.261C375.686 20.4811 475.501 203.002 358 159.501C321.304 145.916 306.389 85.1588 258.5 92C223.5 97 243 53.9234 195.5 24Z" fill="#B0D4DD"/>
</g>
<g filter="url(#filter9_d)">
<path fill-rule="evenodd" clip-rule="evenodd" d="M188 4.92451C133.044 -24.9873 77.7556 108.054 39.5207 94.3909C2.47083 81.1514 25.1579 30.2977 -2.13455 4.92451C-32.7733 -23.5596 -82.7169 -37.903 -87.7467 -76.5425C-93.1413 -117.984 -125.35 -117.037 -95.4487 -149.776C-79.2952 -167.463 -27.1441 -143.807 -17.5924 -164.77C-4.33054 -193.876 49.5407 -181.534 85.957 -175.766C155.376 -164.77 144.837 -169.239 195.87 -181.764C242.502 -193.209 288.199 -189.66 327.186 -164.77C363.343 -141.688 366.211 -155.969 390.117 -123.077C412.092 -92.8405 456.175 -164.423 443.5 -130.442C427.678 -88.0211 440.066 -103.867 438.833 -59.3115C437.153 1.40698 552.637 183.856 416.691 140.373C374.234 126.793 356.978 66.0594 301.572 72.898C261.078 77.8961 242.956 34.8363 188 4.92451Z" fill="#E6F3F6"/>
</g>
<path d="M147.023 165.455H137.773L126.25 172.75V181.477L136.909 174.795H137.182V212H147.023V165.455ZM182.062 195.159C192.881 195.159 199.676 189.5 199.631 180.477C199.676 171.886 193.108 165.455 182.062 165.455H163.881V187.273H157.267V195.159H163.881V198.159H157.267V206.045H163.881V212H173.653V206.045H183.812V198.159H173.653V195.159H182.062ZM173.653 187.273V173.455H182.062C187.267 173.455 189.812 176.591 189.79 180.591C189.812 184.682 187.312 187.273 181.79 187.273H173.653Z" fill="#A0B6BC"/>
</g>
<defs>
<filter id="filter0_d" x="-46.2148" y="194" width="500.347" height="327.677" filterUnits="userSpaceOnUse" color-interpolation-filters="sRGB">
<feFlood flood-opacity="0" result="BackgroundImageFix"/>
<feColorMatrix in="SourceAlpha" type="matrix" values="0 0 0 0 0 0 0 0 0 0 0 0 0 0 0 0 0 0 127 0" result="hardAlpha"/>
<feOffset dy="-3"/>
<feGaussianBlur stdDeviation="5"/>
<feComposite in2="hardAlpha" operator="out"/>
<feColorMatrix type="matrix" values="0 0 0 0 0 0 0 0 0 0 0 0 0 0 0 0 0 0 0.15 0"/>
<feBlend mode="normal" in2="BackgroundImageFix" result="effect1_dropShadow"/>
<feBlend mode="normal" in="SourceGraphic" in2="effect1_dropShadow" result="shape"/>
</filter>
<filter id="filter1_d" x="-49.7852" y="247.501" width="504.15" height="299.362" filterUnits="userSpaceOnUse" color-interpolation-filters="sRGB">
<feFlood flood-opacity="0" result="BackgroundImageFix"/>
<feColorMatrix in="SourceAlpha" type="matrix" values="0 0 0 0 0 0 0 0 0 0 0 0 0 0 0 0 0 0 127 0" result="hardAlpha"/>
<feOffset dy="-3"/>
<feGaussianBlur stdDeviation="5"/>
<feComposite in2="hardAlpha" operator="out"/>
<feColorMatrix type="matrix" values="0 0 0 0 0 0 0 0 0 0 0 0 0 0 0 0 0 0 0.15 0"/>
<feBlend mode="normal" in2="BackgroundImageFix" result="effect1_dropShadow"/>
<feBlend mode="normal" in="SourceGraphic" in2="effect1_dropShadow" result="shape"/>
</filter>
<filter id="filter2_d" x="-46" y="258.8" width="496.182" height="324.546" filterUnits="userSpaceOnUse" color-interpolation-filters="sRGB">
<feFlood flood-opacity="0" result="BackgroundImageFix"/>
<feColorMatrix in="SourceAlpha" type="matrix" values="0 0 0 0 0 0 0 0 0 0 0 0 0 0 0 0 0 0 127 0" result="hardAlpha"/>
<feOffset dy="-3"/>
<feGaussianBlur stdDeviation="5"/>
<feComposite in2="hardAlpha" operator="out"/>
<feColorMatrix type="matrix" values="0 0 0 0 0 0 0 0 0 0 0 0 0 0 0 0 0 0 0.15 0"/>
<feBlend mode="normal" in2="BackgroundImageFix" result="effect1_dropShadow"/>
<feBlend mode="normal" in="SourceGraphic" in2="effect1_dropShadow" result="shape"/>
</filter>
<filter id="filter3_d" x="-46.4414" y="290.316" width="496.182" height="333.03" filterUnits="userSpaceOnUse" color-interpolation-filters="sRGB">
<feFlood flood-opacity="0" result="BackgroundImageFix"/>
<feColorMatrix in="SourceAlpha" type="matrix" values="0 0 0 0 0 0 0 0 0 0 0 0 0 0 0 0 0 0 127 0" result="hardAlpha"/>
<feOffset dy="-3"/>
<feGaussianBlur stdDeviation="5"/>
<feComposite in2="hardAlpha" operator="out"/>
<feColorMatrix type="matrix" values="0 0 0 0 0 0 0 0 0 0 0 0 0 0 0 0 0 0 0.15 0"/>
<feBlend mode="normal" in2="BackgroundImageFix" result="effect1_dropShadow"/>
<feBlend mode="normal" in="SourceGraphic" in2="effect1_dropShadow" result="shape"/>
</filter>
<filter id="filter4_d" x="-74" y="312.315" width="516" height="333" filterUnits="userSpaceOnUse" color-interpolation-filters="sRGB">
<feFlood flood-opacity="0" result="BackgroundImageFix"/>
<feColorMatrix in="SourceAlpha" type="matrix" values="0 0 0 0 0 0 0 0 0 0 0 0 0 0 0 0 0 0 127 0" result="hardAlpha"/>
<feOffset dy="-3"/>
<feGaussianBlur stdDeviation="5"/>
<feComposite in2="hardAlpha" operator="out"/>
<feColorMatrix type="matrix" values="0 0 0 0 0 0 0 0 0 0 0 0 0 0 0 0 0 0 0.15 0"/>
<feBlend mode="normal" in2="BackgroundImageFix" result="effect1_dropShadow"/>
<feBlend mode="normal" in="SourceGraphic" in2="effect1_dropShadow" result="shape"/>
</filter>
<filter id="filter5_d" x="-105.004" y="-57.001" width="559.445" height="316.178" filterUnits="userSpaceOnUse" color-interpolation-filters="sRGB">
<feFlood flood-opacity="0" result="BackgroundImageFix"/>
<feColorMatrix in="SourceAlpha" type="matrix" values="0 0 0 0 0 0 0 0 0 0 0 0 0 0 0 0 0 0 127 0" result="hardAlpha"/>
<feOffset dy="5"/>
<feGaussianBlur stdDeviation="5"/>
<feComposite in2="hardAlpha" operator="out"/>
<feColorMatrix type="matrix" values="0 0 0 0 0 0 0 0 0 0 0 0 0 0 0 0 0 0 0.15 0"/>
<feBlend mode="normal" in2="BackgroundImageFix" result="effect1_dropShadow"/>
<feBlend mode="normal" in="SourceGraphic" in2="effect1_dropShadow" result="shape"/>
</filter>
<filter id="filter6_d" x="-104.998" y="-101" width="545.607" height="328.138" filterUnits="userSpaceOnUse" color-interpolation-filters="sRGB">
<feFlood flood-opacity="0" result="BackgroundImageFix"/>
<feColorMatrix in="SourceAlpha" type="matrix" values="0 0 0 0 0 0 0 0 0 0 0 0 0 0 0 0 0 0 127 0" result="hardAlpha"/>
<feOffset dy="5"/>
<feGaussianBlur stdDeviation="5"/>
<feComposite in2="hardAlpha" operator="out"/>
<feColorMatrix type="matrix" values="0 0 0 0 0 0 0 0 0 0 0 0 0 0 0 0 0 0 0.15 0"/>
<feBlend mode="normal" in2="BackgroundImageFix" result="effect1_dropShadow"/>
<feBlend mode="normal" in="SourceGraphic" in2="effect1_dropShadow" result="shape"/>
</filter>
<filter id="filter7_d" x="-105.004" y="-129.999" width="529.589" height="346.905" filterUnits="userSpaceOnUse" color-interpolation-filters="sRGB">
<feFlood flood-opacity="0" result="BackgroundImageFix"/>
<feColorMatrix in="SourceAlpha" type="matrix" values="0 0 0 0 0 0 0 0 0 0 0 0 0 0 0 0 0 0 127 0" result="hardAlpha"/>
<feOffset dy="5"/>
<feGaussianBlur stdDeviation="5"/>
<feComposite in2="hardAlpha" operator="out"/>
<feColorMatrix type="matrix" values="0 0 0 0 0 0 0 0 0 0 0 0 0 0 0 0 0 0 0.15 0"/>
<feBlend mode="normal" in2="BackgroundImageFix" result="effect1_dropShadow"/>
<feBlend mode="normal" in="SourceGraphic" in2="effect1_dropShadow" result="shape"/>
</filter>
<filter id="filter8_d" x="-105.502" y="-174" width="530.814" height="355.131" filterUnits="userSpaceOnUse" color-interpolation-filters="sRGB">
<feFlood flood-opacity="0" result="BackgroundImageFix"/>
<feColorMatrix in="SourceAlpha" type="matrix" values="0 0 0 0 0 0 0 0 0 0 0 0 0 0 0 0 0 0 127 0" result="hardAlpha"/>
<feOffset dy="5"/>
<feGaussianBlur stdDeviation="5"/>
<feComposite in2="hardAlpha" operator="out"/>
<feColorMatrix type="matrix" values="0 0 0 0 0 0 0 0 0 0 0 0 0 0 0 0 0 0 0.15 0"/>
<feBlend mode="normal" in2="BackgroundImageFix" result="effect1_dropShadow"/>
<feBlend mode="normal" in="SourceGraphic" in2="effect1_dropShadow" result="shape"/>
</filter>
<filter id="filter9_d" x="-118" y="-190" width="611" height="355" filterUnits="userSpaceOnUse" color-interpolation-filters="sRGB">
<feFlood flood-opacity="0" result="BackgroundImageFix"/>
<feColorMatrix in="SourceAlpha" type="matrix" values="0 0 0 0 0 0 0 0 0 0 0 0 0 0 0 0 0 0 127 0" result="hardAlpha"/>
<feOffset dy="8"/>
<feGaussianBlur stdDeviation="5"/>
<feComposite in2="hardAlpha" operator="out"/>
<feColorMatrix type="matrix" values="0 0 0 0 0 0 0 0 0 0 0 0 0 0 0 0 0 0 0.1 0"/>
<feBlend mode="normal" in2="BackgroundImageFix" result="effect1_dropShadow"/>
<feBlend mode="normal" in="SourceGraphic" in2="effect1_dropShadow" result="shape"/>
</filter>
<clipPath id="clip0">
<rect width="375" height="390" fill="white"/>
</clipPath>
</defs>
</svg>
