<svg width="300" height="300" viewBox="0 0 300 300" fill="none" xmlns="http://www.w3.org/2000/svg">
<circle opacity="0.1" cx="150" cy="150" r="150" fill="url(#paint0_radial)"/>
<circle opacity="0.1" cx="150" cy="150" r="120" fill="url(#paint1_radial)"/>
<circle opacity="0.1" cx="150" cy="150" r="90" fill="url(#paint2_radial)"/>
<g filter="url(#filter0_di)">
<circle cx="150" cy="150" r="60" fill="url(#paint3_radial)"/>
</g>
<path d="M115 110L110 115L121 130.405C121.463 131.053 122.075 131.582 122.783 131.946C123.492 132.311 124.278 132.5 125.075 132.5H125.425C126.082 132.499 126.733 132.628 127.341 132.88C127.948 133.131 128.5 133.5 128.965 133.965L142.34 147.34L129.255 160.61C127.017 159.951 124.656 159.823 122.36 160.235C120.064 160.648 117.895 161.59 116.026 162.986C114.158 164.383 112.64 166.196 111.594 168.281C110.548 170.366 110.002 172.667 110 175C110.003 177.149 110.468 179.273 111.364 181.228C112.259 183.182 113.564 184.921 115.191 186.327C116.817 187.732 118.726 188.772 120.79 189.376C122.853 189.979 125.022 190.132 127.149 189.824C129.277 189.516 131.313 188.754 133.121 187.59C134.928 186.427 136.464 184.888 137.625 183.079C138.786 181.269 139.544 179.232 139.849 177.103C140.153 174.975 139.997 172.807 139.39 170.745L152.66 157.66L157.5 162.5L155.975 167.07C155.682 167.95 155.64 168.896 155.854 169.799C156.067 170.702 156.528 171.528 157.185 172.185L173.965 188.965C174.903 189.902 176.174 190.429 177.5 190.429C178.826 190.429 180.097 189.902 181.035 188.965L188.965 181.035C189.902 180.097 190.429 178.825 190.429 177.5C190.429 176.174 189.902 174.902 188.965 173.965L172.185 157.185C171.529 156.528 170.703 156.067 169.799 155.853C168.896 155.64 167.951 155.682 167.07 155.975L162.5 157.5L157.7 152.7L171.1 139.485C173.323 140.078 175.652 140.153 177.909 139.704C180.165 139.254 182.289 138.293 184.115 136.893C185.941 135.494 187.421 133.694 188.442 131.631C189.462 129.569 189.995 127.3 190 125C190 123.655 189.825 122.35 189.49 121.115L178.79 131.82L170 130L168.18 121.215L178.885 110.51C176.338 109.825 173.656 109.824 171.109 110.506C168.562 111.188 166.24 112.53 164.376 114.396C162.513 116.262 161.175 118.586 160.496 121.134C159.817 123.682 159.822 126.364 160.51 128.91L147.31 142.3L133.965 128.965C133.027 128.027 132.5 126.756 132.5 125.43V125.075C132.5 124.278 132.31 123.494 131.946 122.786C131.581 122.078 131.053 121.467 130.405 121.005L115 110ZM163.23 163.23C163.462 162.997 163.738 162.812 164.042 162.686C164.346 162.56 164.671 162.495 165 162.495C165.329 162.495 165.654 162.56 165.958 162.686C166.262 162.812 166.538 162.997 166.77 163.23L181.77 178.23C182.002 178.462 182.187 178.738 182.313 179.042C182.438 179.345 182.503 179.671 182.503 180C182.503 180.328 182.438 180.654 182.313 180.958C182.187 181.261 182.002 181.537 181.77 181.77C181.538 182.002 181.262 182.186 180.958 182.312C180.654 182.438 180.329 182.503 180 182.503C179.671 182.503 179.346 182.438 179.042 182.312C178.738 182.186 178.462 182.002 178.23 181.77L163.23 166.77C162.997 166.537 162.812 166.261 162.686 165.958C162.56 165.654 162.496 165.328 162.496 165C162.496 164.671 162.56 164.345 162.686 164.041C162.812 163.738 162.997 163.462 163.23 163.23ZM125 165L127.355 166.21L130 166.34L131.435 168.565L133.66 170L133.79 172.645L135 175L133.79 177.355L133.66 180L131.435 181.435L130 183.66L127.355 183.79L125 185L122.645 183.79L120 183.66L118.565 181.435L116.34 180L116.21 177.355L115 175L116.21 172.645L116.34 170L118.565 168.565L120 166.34L122.645 166.21L125 165Z" fill="white"/>
<defs>
<filter id="filter0_di" x="78" y="82" width="140" height="140" filterUnits="userSpaceOnUse" color-interpolation-filters="sRGB">
<feFlood flood-opacity="0" result="BackgroundImageFix"/>
<feColorMatrix in="SourceAlpha" type="matrix" values="0 0 0 0 0 0 0 0 0 0 0 0 0 0 0 0 0 0 127 0" result="hardAlpha"/>
<feOffset dx="-2" dy="2"/>
<feGaussianBlur stdDeviation="5"/>
<feComposite in2="hardAlpha" operator="out"/>
<feColorMatrix type="matrix" values="0 0 0 0 0 0 0 0 0 0.2 0 0 0 0 0.25098 0 0 0 0.25 0"/>
<feBlend mode="normal" in2="BackgroundImageFix" result="effect1_dropShadow"/>
<feBlend mode="normal" in="SourceGraphic" in2="effect1_dropShadow" result="shape"/>
<feColorMatrix in="SourceAlpha" type="matrix" values="0 0 0 0 0 0 0 0 0 0 0 0 0 0 0 0 0 0 127 0" result="hardAlpha"/>
<feOffset dx="-1" dy="1"/>
<feGaussianBlur stdDeviation="1"/>
<feComposite in2="hardAlpha" operator="arithmetic" k2="-1" k3="1"/>
<feColorMatrix type="matrix" values="0 0 0 0 1 0 0 0 0 1 0 0 0 0 1 0 0 0 1 0"/>
<feBlend mode="normal" in2="shape" result="effect2_innerShadow"/>
</filter>
<radialGradient id="paint0_radial" cx="0" cy="0" r="1" gradientUnits="userSpaceOnUse" gradientTransform="translate(33.3333 70.8333) rotate(25.3307) scale(735.278)">
<stop stop-color="#05E177"/>
<stop offset="1" stop-color="#00C2FF"/>
</radialGradient>
<radialGradient id="paint1_radial" cx="0" cy="0" r="1" gradientUnits="userSpaceOnUse" gradientTransform="translate(56.6667 86.6667) rotate(25.3307) scale(588.222)">
<stop stop-color="#05E177"/>
<stop offset="1" stop-color="#00C2FF"/>
</radialGradient>
<radialGradient id="paint2_radial" cx="0" cy="0" r="1" gradientUnits="userSpaceOnUse" gradientTransform="translate(80 102.5) rotate(25.3307) scale(441.167)">
<stop stop-color="#05E177"/>
<stop offset="1" stop-color="#00C2FF"/>
</radialGradient>
<radialGradient id="paint3_radial" cx="0" cy="0" r="1" gradientUnits="userSpaceOnUse" gradientTransform="translate(103.333 118.333) rotate(25.3307) scale(294.111)">
<stop stop-color="#05E177"/>
<stop offset="1" stop-color="#00C2FF"/>
</radialGradient>
</defs>
</svg>
