<svg width="300" height="300" viewBox="0 0 300 300" fill="none" xmlns="http://www.w3.org/2000/svg">
<circle opacity="0.1" cx="150" cy="150" r="150" fill="url(#paint0_radial)"/>
<circle opacity="0.1" cx="150" cy="150" r="120" fill="url(#paint1_radial)"/>
<circle opacity="0.1" cx="150" cy="150" r="90" fill="url(#paint2_radial)"/>
<g filter="url(#filter0_di)">
<circle cx="150" cy="150" r="60" fill="url(#paint3_radial)"/>
</g>
<path d="M190 150C190 160.609 185.786 170.783 178.284 178.284C170.783 185.786 160.609 190 150 190C139.391 190 129.217 185.786 121.716 178.284C114.214 170.783 110 160.609 110 150C110 139.391 114.214 129.217 121.716 121.716C129.217 114.214 139.391 110 150 110C160.609 110 170.783 114.214 178.284 121.716C185.786 129.217 190 139.391 190 150V150ZM150 127.5C150 126.837 149.737 126.201 149.268 125.732C148.799 125.263 148.163 125 147.5 125C146.837 125 146.201 125.263 145.732 125.732C145.263 126.201 145 126.837 145 127.5V155C145 155.441 145.117 155.873 145.338 156.255C145.559 156.636 145.877 156.951 146.26 157.17L163.76 167.17C164.334 167.48 165.007 167.554 165.635 167.375C166.263 167.195 166.795 166.778 167.119 166.211C167.443 165.644 167.532 164.973 167.368 164.341C167.204 163.71 166.799 163.167 166.24 162.83L150 153.55V127.5Z" fill="white"/>
<defs>
<filter id="filter0_di" x="78" y="82" width="140" height="140" filterUnits="userSpaceOnUse" color-interpolation-filters="sRGB">
<feFlood flood-opacity="0" result="BackgroundImageFix"/>
<feColorMatrix in="SourceAlpha" type="matrix" values="0 0 0 0 0 0 0 0 0 0 0 0 0 0 0 0 0 0 127 0" result="hardAlpha"/>
<feOffset dx="-2" dy="2"/>
<feGaussianBlur stdDeviation="5"/>
<feComposite in2="hardAlpha" operator="out"/>
<feColorMatrix type="matrix" values="0 0 0 0 0 0 0 0 0 0.2 0 0 0 0 0.25098 0 0 0 0.25 0"/>
<feBlend mode="normal" in2="BackgroundImageFix" result="effect1_dropShadow"/>
<feBlend mode="normal" in="SourceGraphic" in2="effect1_dropShadow" result="shape"/>
<feColorMatrix in="SourceAlpha" type="matrix" values="0 0 0 0 0 0 0 0 0 0 0 0 0 0 0 0 0 0 127 0" result="hardAlpha"/>
<feOffset dx="-1" dy="1"/>
<feGaussianBlur stdDeviation="1"/>
<feComposite in2="hardAlpha" operator="arithmetic" k2="-1" k3="1"/>
<feColorMatrix type="matrix" values="0 0 0 0 1 0 0 0 0 1 0 0 0 0 1 0 0 0 1 0"/>
<feBlend mode="normal" in2="shape" result="effect2_innerShadow"/>
</filter>
<radialGradient id="paint0_radial" cx="0" cy="0" r="1" gradientUnits="userSpaceOnUse" gradientTransform="translate(33.3333 70.8333) rotate(25.3307) scale(735.278)">
<stop stop-color="#05E177"/>
<stop offset="1" stop-color="#00C2FF"/>
</radialGradient>
<radialGradient id="paint1_radial" cx="0" cy="0" r="1" gradientUnits="userSpaceOnUse" gradientTransform="translate(56.6667 86.6667) rotate(25.3307) scale(588.222)">
<stop stop-color="#05E177"/>
<stop offset="1" stop-color="#00C2FF"/>
</radialGradient>
<radialGradient id="paint2_radial" cx="0" cy="0" r="1" gradientUnits="userSpaceOnUse" gradientTransform="translate(80 102.5) rotate(25.3307) scale(441.167)">
<stop stop-color="#05E177"/>
<stop offset="1" stop-color="#00C2FF"/>
</radialGradient>
<radialGradient id="paint3_radial" cx="0" cy="0" r="1" gradientUnits="userSpaceOnUse" gradientTransform="translate(103.333 118.333) rotate(25.3307) scale(294.111)">
<stop stop-color="#05E177"/>
<stop offset="1" stop-color="#00C2FF"/>
</radialGradient>
</defs>
</svg>
