<svg width="375" height="805" viewBox="0 0 375 805" fill="none" xmlns="http://www.w3.org/2000/svg">
<g clip-path="url(#clip0)">
<g opacity="0.5">
<path d="M328.932 696.44C320.484 696.44 313.284 695.096 307.332 692.408C301.476 689.72 297.06 686.36 294.084 682.328C291.204 678.2 289.668 673.976 289.476 669.656C289.476 668.792 289.764 668.12 290.34 667.64C291.012 667.064 291.78 666.776 292.644 666.776H305.604C307.716 666.776 309.108 667.736 309.78 669.656C311.892 676.568 318.324 680.024 329.076 680.024C334.932 680.024 339.54 678.68 342.9 675.992C346.26 673.208 347.94 669.272 347.94 664.184C347.94 654.584 341.94 649.784 329.94 649.784H315.108C314.052 649.784 313.188 649.448 312.516 648.776C311.844 648.104 311.508 647.288 311.508 646.328V640.28C311.508 638.744 312.18 637.304 313.524 635.96L339.3 610.76H298.116C297.156 610.76 296.34 610.424 295.668 609.752C294.996 609.08 294.66 608.264 294.66 607.304V597.8C294.66 596.744 294.948 595.88 295.524 595.208C296.196 594.536 297.06 594.2 298.116 594.2H359.892C360.948 594.2 361.812 594.536 362.484 595.208C363.156 595.88 363.492 596.744 363.492 597.8V606.44C363.492 607.88 362.868 609.224 361.62 610.472L336.708 636.104L338.436 636.248C347.652 637.016 354.948 639.8 360.324 644.6C365.796 649.4 368.532 656.264 368.532 665.192C368.532 671.528 366.804 677.048 363.348 681.752C359.988 686.456 355.284 690.104 349.236 692.696C343.284 695.192 336.516 696.44 328.932 696.44Z" fill="black"/>
<path d="M328.932 696.44C320.484 696.44 313.284 695.096 307.332 692.408C301.476 689.72 297.06 686.36 294.084 682.328C291.204 678.2 289.668 673.976 289.476 669.656C289.476 668.792 289.764 668.12 290.34 667.64C291.012 667.064 291.78 666.776 292.644 666.776H305.604C307.716 666.776 309.108 667.736 309.78 669.656C311.892 676.568 318.324 680.024 329.076 680.024C334.932 680.024 339.54 678.68 342.9 675.992C346.26 673.208 347.94 669.272 347.94 664.184C347.94 654.584 341.94 649.784 329.94 649.784H315.108C314.052 649.784 313.188 649.448 312.516 648.776C311.844 648.104 311.508 647.288 311.508 646.328V640.28C311.508 638.744 312.18 637.304 313.524 635.96L339.3 610.76H298.116C297.156 610.76 296.34 610.424 295.668 609.752C294.996 609.08 294.66 608.264 294.66 607.304V597.8C294.66 596.744 294.948 595.88 295.524 595.208C296.196 594.536 297.06 594.2 298.116 594.2H359.892C360.948 594.2 361.812 594.536 362.484 595.208C363.156 595.88 363.492 596.744 363.492 597.8V606.44C363.492 607.88 362.868 609.224 361.62 610.472L336.708 636.104L338.436 636.248C347.652 637.016 354.948 639.8 360.324 644.6C365.796 649.4 368.532 656.264 368.532 665.192C368.532 671.528 366.804 677.048 363.348 681.752C359.988 686.456 355.284 690.104 349.236 692.696C343.284 695.192 336.516 696.44 328.932 696.44Z" fill="url(#paint0_radial)"/>
</g>
<g opacity="0.5">
<path d="M10.3579 419C9.39788 419 8.58188 418.664 7.90988 417.992C7.23788 417.32 6.90188 416.504 6.90188 415.544V408.2C6.90188 405.608 8.10188 403.352 10.5019 401.432L33.2539 378.824C43.1419 371.048 50.0059 365 53.8459 360.68C57.7819 356.264 59.7499 351.944 59.7499 347.72C59.7499 343.208 58.5019 339.656 56.0059 337.064C53.6059 334.472 49.9579 333.176 45.0619 333.176C40.2619 333.176 36.4699 334.616 33.6859 337.496C30.9019 340.28 29.1739 343.928 28.5019 348.44C28.2139 349.592 27.6859 350.456 26.9179 351.032C26.1499 351.512 25.2859 351.752 24.3259 351.752H11.5099C10.6459 351.752 9.92588 351.464 9.34988 350.888C8.77388 350.312 8.48588 349.64 8.48588 348.872C8.67788 343.208 10.2139 337.928 13.0939 333.032C15.9739 328.04 20.1499 324.056 25.6219 321.08C31.0939 318.008 37.5259 316.472 44.9179 316.472C52.5979 316.472 59.0779 317.816 64.3579 320.504C69.7339 323.096 73.7659 326.696 76.4539 331.304C79.1419 335.912 80.4859 341.144 80.4859 347C80.4859 353.432 78.6619 359.24 75.0139 364.424C71.4619 369.608 65.9899 375.176 58.5979 381.128L38.1499 401.864H79.1899C80.2459 401.864 81.0619 402.2 81.6379 402.872C82.3099 403.448 82.6459 404.264 82.6459 405.32V415.544C82.6459 416.504 82.3099 417.32 81.6379 417.992C81.0619 418.664 80.2459 419 79.1899 419H10.3579Z" fill="black"/>
<path d="M10.3579 419C9.39788 419 8.58188 418.664 7.90988 417.992C7.23788 417.32 6.90188 416.504 6.90188 415.544V408.2C6.90188 405.608 8.10188 403.352 10.5019 401.432L33.2539 378.824C43.1419 371.048 50.0059 365 53.8459 360.68C57.7819 356.264 59.7499 351.944 59.7499 347.72C59.7499 343.208 58.5019 339.656 56.0059 337.064C53.6059 334.472 49.9579 333.176 45.0619 333.176C40.2619 333.176 36.4699 334.616 33.6859 337.496C30.9019 340.28 29.1739 343.928 28.5019 348.44C28.2139 349.592 27.6859 350.456 26.9179 351.032C26.1499 351.512 25.2859 351.752 24.3259 351.752H11.5099C10.6459 351.752 9.92588 351.464 9.34988 350.888C8.77388 350.312 8.48588 349.64 8.48588 348.872C8.67788 343.208 10.2139 337.928 13.0939 333.032C15.9739 328.04 20.1499 324.056 25.6219 321.08C31.0939 318.008 37.5259 316.472 44.9179 316.472C52.5979 316.472 59.0779 317.816 64.3579 320.504C69.7339 323.096 73.7659 326.696 76.4539 331.304C79.1419 335.912 80.4859 341.144 80.4859 347C80.4859 353.432 78.6619 359.24 75.0139 364.424C71.4619 369.608 65.9899 375.176 58.5979 381.128L38.1499 401.864H79.1899C80.2459 401.864 81.0619 402.2 81.6379 402.872C82.3099 403.448 82.6459 404.264 82.6459 405.32V415.544C82.6459 416.504 82.3099 417.32 81.6379 417.992C81.0619 418.664 80.2459 419 79.1899 419H10.3579Z" fill="url(#paint1_radial)"/>
</g>
<path opacity="0.4" d="M348.06 135C347.1 135 346.284 134.664 345.612 133.992C344.94 133.32 344.604 132.504 344.604 131.544V56.952L322.716 73.8C322.14 74.28 321.468 74.52 320.7 74.52C319.548 74.52 318.588 73.992 317.82 72.936L311.772 65.16C311.292 64.392 311.052 63.672 311.052 63C311.052 61.848 311.58 60.888 312.636 60.12L344.892 35.208C345.756 34.536 346.956 34.2 348.492 34.2H361.164C362.22 34.2 363.036 34.536 363.612 35.208C364.284 35.784 364.62 36.6 364.62 37.656V131.544C364.62 132.504 364.284 133.32 363.612 133.992C363.036 134.664 362.22 135 361.164 135H348.06Z" fill="url(#paint2_radial)"/>
<path d="M-6.99908 29.0005C441.001 -87.9993 404.919 327.498 170.494 300.999C-59.5034 275 -0.83976 611.234 120.5 593C513 534.018 206 768.5 390.5 804.5" stroke="url(#paint3_linear)" stroke-width="6"/>
<circle cy="28" r="20" fill="url(#paint4_radial)"/>
<circle cx="375" cy="809" r="20" transform="rotate(-180 375 809)" fill="url(#paint5_radial)"/>
</g>
<defs>
<radialGradient id="paint0_radial" cx="0" cy="0" r="1" gradientUnits="userSpaceOnUse" gradientTransform="translate(284 560) rotate(60.5589) scale(115.711 56.3487)">
<stop offset="0.302083" stop-color="#05E177"/>
<stop offset="1" stop-color="#7BDFFF"/>
</radialGradient>
<radialGradient id="paint1_radial" cx="0" cy="0" r="1" gradientUnits="userSpaceOnUse" gradientTransform="translate(0 284) rotate(60.8291) scale(115.405 55.8772)">
<stop offset="0.302083" stop-color="#05E177"/>
<stop offset="1" stop-color="#7BDFFF"/>
</radialGradient>
<radialGradient id="paint2_radial" cx="0" cy="0" r="1" gradientUnits="userSpaceOnUse" gradientTransform="translate(308) rotate(67.4342) scale(109.122 43.9923)">
<stop offset="0.302083" stop-color="#05E177"/>
<stop offset="1" stop-color="#7BDFFF"/>
</radialGradient>
<linearGradient id="paint3_linear" x1="379.999" y1="-47.5" x2="379.999" y2="875" gradientUnits="userSpaceOnUse">
<stop stop-color="#05E177"/>
<stop offset="0.441252" stop-color="#00C2FF"/>
<stop offset="0.598881" stop-color="#03D7A1"/>
<stop offset="1" stop-color="#05E177"/>
</linearGradient>
<radialGradient id="paint4_radial" cx="0" cy="0" r="1" gradientUnits="userSpaceOnUse" gradientTransform="translate(-20 32) rotate(-13.1092) scale(37.4767)">
<stop offset="0.493692" stop-color="#E6F3F6"/>
<stop offset="1" stop-color="#E6F3F6" stop-opacity="0"/>
</radialGradient>
<radialGradient id="paint5_radial" cx="0" cy="0" r="1" gradientUnits="userSpaceOnUse" gradientTransform="translate(359 803.5) rotate(32.3474) scale(35.5106)">
<stop stop-color="#E6F3F6"/>
<stop offset="0.493692" stop-color="#E6F3F6"/>
<stop offset="1" stop-color="#E6F3F6" stop-opacity="0"/>
</radialGradient>
<clipPath id="clip0">
<rect width="375" height="805" fill="white"/>
</clipPath>
</defs>
</svg>
