<svg width="96" height="96" viewBox="0 0 96 96" fill="none" xmlns="http://www.w3.org/2000/svg">
<g filter="url(#filter0_d)">
<circle cx="48" cy="48" r="36" fill="url(#paint0_radial)"/>
<path d="M30.6992 27.9915L28.1992 30.4902L33.6992 38.1886C33.9308 38.5128 34.2365 38.7769 34.5909 38.959C34.9453 39.1412 35.3382 39.236 35.7367 39.2355H35.9117C36.2404 39.2353 36.5659 39.2998 36.8697 39.4254C37.1734 39.551 37.4493 39.7353 37.6817 39.9676L44.3692 46.6516L37.8267 53.2831C36.7077 52.9538 35.5273 52.8898 34.3792 53.0959C33.2311 53.3021 32.1469 53.7728 31.2125 54.4707C30.2781 55.1686 29.5193 56.0746 28.9962 57.1167C28.4732 58.1588 28.2003 59.3084 28.1992 60.4743C28.2007 61.5485 28.4332 62.6099 28.881 63.5866C29.3288 64.5632 29.9813 65.4322 30.7945 66.1347C31.6076 66.8373 32.5624 67.3569 33.594 67.6585C34.6256 67.96 35.7101 68.0364 36.7738 67.8825C37.8376 67.7285 38.8558 67.3479 39.7595 66.7663C40.6632 66.1847 41.4313 65.4158 42.0117 64.5116C42.5921 63.6074 42.9713 62.5891 43.1236 61.5256C43.2758 60.4622 43.1976 59.3785 42.8942 58.3479L49.5292 51.8088L51.9492 54.2276L51.1867 56.5114C51.0402 56.9516 51.0192 57.4238 51.126 57.8753C51.2329 58.3267 51.4634 58.7396 51.7917 59.0675L60.1817 67.453C60.6505 67.9215 61.2863 68.1846 61.9492 68.1846C62.6121 68.1846 63.2479 67.9215 63.7167 67.453L67.6817 63.4901C68.1504 63.0216 68.4137 62.3861 68.4137 61.7236C68.4137 61.061 68.1504 60.4256 67.6817 59.957L59.2917 51.5715C58.9636 51.2433 58.5506 51.013 58.0989 50.9062C57.6472 50.7994 57.1747 50.8204 56.7342 50.9668L54.4492 51.7289L52.0492 49.3302L58.7492 42.7262C59.8607 43.0227 61.0254 43.0602 62.1537 42.8356C63.2819 42.6111 64.3435 42.1306 65.2566 41.4312C66.1697 40.7318 66.9098 39.8322 67.42 38.8017C67.9302 37.7711 68.1968 36.6373 68.1992 35.4875C68.1992 34.8154 68.1117 34.1632 67.9442 33.546L62.5942 38.8957L58.1992 37.9862L57.2892 33.596L62.6417 28.2464C61.3685 27.9042 60.0274 27.9035 58.7538 28.2445C57.4803 28.5855 56.3191 29.2559 55.3874 30.1884C54.4558 31.1208 53.7865 32.2823 53.4471 33.5557C53.1077 34.829 53.1101 36.1694 53.4542 37.4415L46.8542 44.1329L40.1817 37.469C39.7128 37.0005 39.4494 36.365 39.4492 35.7024V35.525C39.4493 35.1271 39.3542 34.735 39.172 34.3812C38.9898 34.0274 38.7257 33.7222 38.4017 33.4911L30.6992 27.9915ZM54.8142 54.5924C54.9303 54.476 55.0683 54.3837 55.2201 54.3207C55.372 54.2578 55.5348 54.2253 55.6992 54.2253C55.8636 54.2253 56.0264 54.2578 56.1783 54.3207C56.3302 54.3837 56.4681 54.476 56.5842 54.5924L64.0842 62.0884C64.2004 62.2046 64.2926 62.3424 64.3555 62.4942C64.4184 62.646 64.4508 62.8087 64.4508 62.9729C64.4508 63.1372 64.4184 63.2999 64.3555 63.4516C64.2926 63.6034 64.2004 63.7413 64.0842 63.8575C63.968 63.9736 63.83 64.0658 63.6782 64.1286C63.5263 64.1915 63.3636 64.2238 63.1992 64.2238C63.0349 64.2238 62.8721 64.1915 62.7203 64.1286C62.5684 64.0658 62.4304 63.9736 62.3142 63.8575L54.8142 56.3614C54.6978 56.2454 54.6055 56.1075 54.5424 55.9557C54.4794 55.8039 54.447 55.6412 54.447 55.4769C54.447 55.3126 54.4794 55.1499 54.5424 54.9981C54.6055 54.8463 54.6978 54.7084 54.8142 54.5924ZM35.6992 55.4769L36.8767 56.0816L38.1992 56.1465L38.9167 57.2585L40.0292 57.9756L40.0942 59.2974L40.6992 60.4743L40.0942 61.6511L40.0292 62.9729L38.9167 63.69L38.1992 64.802L36.8767 64.8669L35.6992 65.4716L34.5217 64.8669L33.1992 64.802L32.4817 63.69L31.3692 62.9729L31.3042 61.6511L30.6992 60.4743L31.3042 59.2974L31.3692 57.9756L32.4817 57.2585L33.1992 56.1465L34.5217 56.0816L35.6992 55.4769Z" fill="white"/>
</g>
<defs>
<filter id="filter0_d" x="0" y="0" width="96" height="96" filterUnits="userSpaceOnUse" color-interpolation-filters="sRGB">
<feFlood flood-opacity="0" result="BackgroundImageFix"/>
<feColorMatrix in="SourceAlpha" type="matrix" values="0 0 0 0 0 0 0 0 0 0 0 0 0 0 0 0 0 0 127 0" result="hardAlpha"/>
<feOffset/>
<feGaussianBlur stdDeviation="6"/>
<feComposite in2="hardAlpha" operator="out"/>
<feColorMatrix type="matrix" values="0 0 0 0 0.0196078 0 0 0 0 0.882353 0 0 0 0 0.466667 0 0 0 1 0"/>
<feBlend mode="normal" in2="BackgroundImageFix" result="effect1_dropShadow"/>
<feBlend mode="normal" in="SourceGraphic" in2="effect1_dropShadow" result="shape"/>
</filter>
<radialGradient id="paint0_radial" cx="0" cy="0" r="1" gradientUnits="userSpaceOnUse" gradientTransform="translate(38.2002 12) rotate(84.6107) scale(106.471)">
<stop stop-color="#05E177"/>
<stop offset="1" stop-color="#00C2FF"/>
</radialGradient>
</defs>
</svg>
