<svg width="30" height="30" viewBox="0 0 30 30" fill="none" xmlns="http://www.w3.org/2000/svg">
<g clip-path="url(#clip0)">
<path d="M15 30C23.2843 30 30 23.2843 30 15C30 6.71573 23.2843 0 15 0C6.71573 0 0 6.71573 0 15C0 23.2843 6.71573 30 15 30Z" fill="#F0F0F0"/>
<path d="M29.067 20.217C29.67 18.592 30 16.8344 30 14.9996C30 13.1648 29.67 11.4072 29.067 9.78223H0.932988C0.330059 11.4072 0 13.1648 0 14.9996C0 16.8344 0.330059 18.592 0.932988 20.217L15 21.5213L29.067 20.217Z" fill="#0052B4"/>
<path d="M15.0006 30.0004C21.4501 30.0004 26.9482 25.9298 29.0676 20.2178H0.933594C3.05299 25.9298 8.55113 30.0004 15.0006 30.0004Z" fill="#D80027"/>
</g>
<path d="M15 29C7.26801 29 1 22.732 1 15H-1C-1 23.8366 6.16344 31 15 31V29ZM29 15C29 22.732 22.732 29 15 29V31C23.8366 31 31 23.8366 31 15H29ZM15 1C22.732 1 29 7.26801 29 15H31C31 6.16344 23.8366 -1 15 -1V1ZM15 -1C6.16344 -1 -1 6.16344 -1 15H1C1 7.26801 7.26801 1 15 1V-1Z" fill="white"/>
<defs>
<clipPath id="clip0">
<path d="M0 15C0 6.71573 6.71573 0 15 0C23.2843 0 30 6.71573 30 15C30 23.2843 23.2843 30 15 30C6.71573 30 0 23.2843 0 15Z" fill="white"/>
</clipPath>
</defs>
</svg>
