<svg width="28" height="28" viewBox="0 0 28 28" fill="none" xmlns="http://www.w3.org/2000/svg">
<path d="M17.5857 2.33398H10.4277C3.88951 2.33398 2.33398 3.88951 2.33398 10.4156V17.5736C2.33398 24.1117 3.87741 25.6673 10.4156 25.6673H17.5736C24.1118 25.6673 25.6673 24.1239 25.6673 17.5857V10.4277C25.6673 3.88951 24.1239 2.33398 17.5857 2.33398ZM21.1708 18.9833H19.4694C18.8253 18.9833 18.6309 18.4607 17.4764 17.3062C16.4676 16.334 16.0423 16.2124 15.7871 16.2124C15.4347 16.2124 15.3374 16.3096 15.3374 16.7958V18.327C15.3374 18.7402 15.2038 18.9833 14.1222 18.9833C13.0727 18.9127 12.0549 18.5939 11.1527 18.053C10.2505 17.5121 9.48969 16.7646 8.93294 15.8721C7.61123 14.227 6.69161 12.2962 6.24721 10.2333C6.24721 9.97806 6.3444 9.74714 6.83054 9.74714H8.5319C8.9694 9.74714 9.12741 9.9416 9.29753 10.3913C10.1239 12.8218 11.5337 14.9364 12.1048 14.9364C12.3236 14.9364 12.4208 14.8392 12.4208 14.2923V11.7888C12.3478 10.6465 11.7402 10.5492 11.7402 10.1361C11.7482 10.0271 11.7984 9.92547 11.8801 9.85285C11.9618 9.78024 12.0685 9.74231 12.1777 9.74714H14.8514C15.216 9.74714 15.3374 9.92943 15.3374 10.3669V13.7454C15.3374 14.11 15.4954 14.2315 15.6048 14.2315C15.8236 14.2315 15.9937 14.11 16.3947 13.709C17.2565 12.658 17.9607 11.4872 18.485 10.2333C18.5385 10.0824 18.64 9.95318 18.7739 9.8654C18.9077 9.77761 19.0667 9.73608 19.2264 9.74714H20.9277C21.4382 9.74714 21.5475 10.0023 21.4382 10.3669C20.8191 11.7533 20.0531 13.0693 19.1535 14.2923C18.9712 14.5718 18.8983 14.7176 19.1535 15.0458C19.3236 15.301 19.9191 15.7992 20.3201 16.2732C20.9034 16.855 21.3878 17.5283 21.7541 18.2663C21.8999 18.7402 21.6569 18.9833 21.1708 18.9833Z" fill="#80B1C0"/>
</svg>
